<svg xmlns="http://www.w3.org/2000/svg" fill="none" viewBox="0 0 3000 3000"><path fill="#E7E8FF" d="M872.831 2561.33H1391.11H2125.33C2239.36 2561.33 2349.55 2520.12 2435.54 2445.31L2451.73 2431.22C2661.13 2249.05 2659.12 1923.44 2447.5 1743.85L2433.15 1731.68C2349.38 1660.59 2297.78 1558.83 2289.97 1449.31L2248.86 872.656C2239.33 738.983 2075.3 680.355 1983.04 777.643C1924.07 839.823 1825.65 842.025 1763.95 782.543L1526.32 553.439C1314.56 349.287 962.754 428.524 859.196 703.694C836.16 764.904 798.757 819.699 750.127 863.477L292.144 1275.76C73.4981 1472.6 36.2234 1801.43 205.277 2042.11L396.032 2313.69C505.066 2468.92 682.993 2561.33 872.831 2561.33Z"/><path fill="#032068" d="M142.159 2225.08C140.207 2373.18 241.214 2498.22 292.514 2542.01H371.133C312.688 2344.41 216.064 2246.16 161.917 2213.46C152.904 2208.01 142.298 2214.55 142.159 2225.08Z"/><path fill="#fff" d="M133.851 1739.16C53.3116 2041.99 256.321 2400.64 343.617 2534.15H520.505C444.525 1962.78 317.143 1823.92 156.102 1730.08C147.456 1725.05 136.423 1729.49 133.851 1739.16Z"/><path fill="#032068" fill-rule="evenodd" d="M152.144 1736.88C147.895 1734.4 142.662 1736.62 141.449 1741.18C101.771 1890.37 131.834 2053.95 183.198 2197.5C233.61 2338.4 304.207 2459.07 347.877 2526.29H511.52C473.709 2246.17 423.444 2072.13 363.231 1956.68C302.598 1840.42 231.705 1783.24 152.144 1736.88ZM126.253 1737.14C130.184 1722.36 147.017 1715.69 160.06 1723.29C241.541 1770.77 314.859 1829.93 377.172 1949.41C439.27 2068.47 490.263 2247.09 528.299 2533.11L529.482 2542.01H339.364L337.037 2538.45C293.196 2471.4 220.272 2347.79 168.394 2202.8C116.563 2057.94 85.3913 1890.78 126.253 1737.14Z" clip-rule="evenodd"/><path fill="#032068" d="M419.067 1925.47C349.499 2179.24 429.135 2442.96 481.2 2542.01H610.918C640.095 2232.73 521.503 2007.82 443.533 1919.41C435.839 1910.68 422.142 1914.25 419.067 1925.47Z"/><path fill="#032068" fill-rule="evenodd" d="M243.967 1954.64L201.649 1835.75L186.836 1841.02L283.764 2113.34L220.089 2094.22L215.567 2109.28L290.306 2131.72L378.46 2379.4L299.119 2349.89L293.638 2364.63L385.342 2398.73L434.481 2536.79L449.294 2531.51L349.496 2251.13L386.398 2147.63L371.588 2142.35L341.157 2227.7L252.881 1979.69L280.391 1887.81L265.329 1883.3L243.967 1954.64Z" clip-rule="evenodd"/><path fill="#fff" fill-rule="evenodd" d="M485.401 2128.11L465.346 2017.8L449.876 2020.61L490.584 2244.51L437.689 2216.66L430.362 2230.57L494.157 2264.16L529.073 2456.2L485.338 2421.83L475.624 2434.2L533.315 2479.53L544.217 2539.49L559.686 2536.67L531.721 2382.87L577.844 2322.74L565.368 2313.17L527.924 2361.98L488.919 2147.45L526.274 2107.09L514.735 2096.41L485.401 2128.11Z" clip-rule="evenodd"/><path fill="#fff" d="M193.951 609.042C193.951 580.074 217.435 556.591 246.402 556.591H1611.65C1640.61 556.591 1664.1 580.074 1664.1 609.042V2155.1C1664.1 2184.07 1640.61 2207.56 1611.65 2207.56H246.403C217.435 2207.56 193.951 2184.07 193.951 2155.1V609.042Z"/><path fill="#032068" fill-rule="evenodd" d="M186.09 609.042C186.09 575.733 213.093 548.729 246.402 548.729H1611.65C1644.96 548.729 1671.96 575.732 1671.96 609.042V2155.11C1671.96 2188.42 1644.96 2215.42 1611.65 2215.42H246.402C213.093 2215.42 186.09 2188.42 186.09 2155.11V609.042ZM246.402 564.453C221.776 564.453 201.813 584.416 201.813 609.042V2155.11C201.813 2179.73 221.776 2199.69 246.402 2199.69H1611.65C1636.27 2199.69 1656.23 2179.73 1656.23 2155.11V609.042C1656.23 584.416 1636.27 564.453 1611.65 564.453H246.402Z" clip-rule="evenodd"/><path fill="#F4AD5E" d="M359.048 918.232C359.048 905.206 369.607 894.646 382.633 894.646H775.72C788.746 894.646 799.305 905.206 799.305 918.232C799.305 931.257 788.746 941.817 775.72 941.817H382.633C369.607 941.817 359.048 931.257 359.048 918.232Z"/><path fill="#032068" d="M193.951 609.042C193.951 580.074 217.435 556.591 246.402 556.591H1611.65C1640.61 556.591 1664.1 580.074 1664.1 609.042V737.411H193.951V609.042Z"/><path fill="#fff" d="M359.885 648.288C359.885 669.992 342.291 687.587 320.586 687.587C298.882 687.587 281.287 669.992 281.287 648.288C281.287 626.583 298.882 608.988 320.586 608.988C342.291 608.988 359.885 626.583 359.885 648.288Z"/><path fill="#fff" d="M490.89 648.288C490.89 669.992 473.295 687.587 451.591 687.587C429.886 687.587 412.291 669.992 412.291 648.288C412.291 626.583 429.886 608.988 451.591 608.988C473.295 608.988 490.89 626.583 490.89 648.288Z"/><path fill="#fff" d="M621.883 648.288C621.883 669.992 604.288 687.587 582.584 687.587C560.879 687.587 543.284 669.992 543.284 648.288C543.284 626.583 560.879 608.988 582.584 608.988C604.288 608.988 621.883 626.583 621.883 648.288Z"/><path fill="#E7E8FF" d="M374.771 1099.05C374.771 1086.03 385.331 1075.47 398.356 1075.47H807.167C820.193 1075.47 830.752 1086.03 830.752 1099.05V1468.55C830.752 1481.58 820.193 1492.14 807.167 1492.14H398.356C385.331 1492.14 374.771 1481.58 374.771 1468.55V1099.05Z"/><path fill="#E7E8FF" d="M374.771 1641.51C374.771 1628.49 385.331 1617.93 398.356 1617.93H807.167C820.193 1617.93 830.752 1628.49 830.752 1641.51V2011.01C830.752 2024.04 820.193 2034.6 807.167 2034.6H398.356C385.331 2034.6 374.771 2024.04 374.771 2011.01V1641.51Z"/><path fill="#E7E8FF" d="M1043.02 1220.91C1043.02 1214.4 1048.3 1209.12 1054.81 1209.12H1416.45C1422.96 1209.12 1428.24 1214.4 1428.24 1220.91C1428.24 1227.42 1422.96 1232.7 1416.45 1232.7H1054.81C1048.3 1232.7 1043.02 1227.42 1043.02 1220.91Z"/><path fill="#E7E8FF" d="M1043.02 1755.51C1043.02 1748.99 1048.3 1743.71 1054.81 1743.71H1416.45C1422.96 1743.71 1428.24 1748.99 1428.24 1755.51C1428.24 1762.02 1422.96 1767.3 1416.45 1767.3H1054.81C1048.3 1767.3 1043.02 1762.02 1043.02 1755.51Z"/><path fill="#E7E8FF" d="M1043.02 1354.56C1043.02 1348.04 1048.3 1342.77 1054.81 1342.77H1243.49C1250.01 1342.77 1255.29 1348.04 1255.29 1354.56C1255.29 1361.07 1250.01 1366.35 1243.49 1366.35H1054.81C1048.3 1366.35 1043.02 1361.07 1043.02 1354.56Z"/><path fill="#E7E8FF" d="M1043.02 1889.16C1043.02 1882.64 1048.3 1877.36 1054.81 1877.36H1243.49C1250.01 1877.36 1255.29 1882.64 1255.29 1889.16C1255.29 1895.67 1250.01 1900.95 1243.49 1900.95H1054.81C1048.3 1900.95 1043.02 1895.67 1043.02 1889.16Z"/><path fill="#EFCB96" d="M1921.55 1404.99L1913.73 1459.68C1920.24 1484.43 1946.55 1533.91 1999.7 1533.91C2052.84 1533.91 2073.94 1484.43 2077.85 1459.68L2058.31 1381.55C2064.82 1381.55 2079.41 1360.46 2085.66 1276.08C2093.48 1170.6 2042.68 1115.91 1960.62 1123.72C1878.56 1131.53 1862.93 1209.67 1862.93 1299.52C1862.93 1371.4 1902.01 1399.78 1921.55 1404.99Z"/><path fill="#032068" d="M1601.13 2561.33L1612.85 2448.04L2394.36 2416.79V2561.33H1601.13Z"/><path fill="#EFCB96" d="M1651.92 1174.51C1636.29 1215.14 1614.15 1256.54 1605.03 1272.17L1687.09 1307.33C1704.02 1290.4 1744.14 1253.42 1769.15 1240.92C1800.41 1225.29 1796.5 1201.85 1788.69 1197.95C1782.44 1194.82 1762.64 1196.64 1753.52 1197.95C1771.76 1170.6 1800.41 1126.07 1800.41 1119.82C1800.41 1112 1780.87 1096.38 1741.8 1096.38C1702.72 1096.38 1671.46 1123.72 1651.92 1174.51Z"/><path fill="#F4AD5E" d="M1999.7 1498.75C2052.84 1498.75 2079.15 1464.9 2085.67 1447.97C2292.77 1449.42 2445.16 1623.76 2464.7 1783.93C2480.33 1912.07 2485.75 2113.22 2429.53 2213.65C2433.44 2277.46 2435.78 2412.89 2413.9 2444.14C2386.54 2483.2 2132.55 2494.92 1995.79 2494.92C1859.02 2494.92 1616.76 2487.11 1581.59 2444.14C1553.45 2409.76 1593.31 2039.16 1616.76 1858.16C1612.85 1862.06 1583.94 1873 1499.53 1885.5C1394.03 1901.13 1296.34 1858.16 1311.97 1697.99C1327.6 1537.82 1554.24 1272.17 1585.5 1264.36C1616.76 1256.55 1714.45 1295.61 1706.63 1330.77C1698.82 1365.93 1620.67 1518.29 1628.48 1518.29C1634.73 1518.29 1688.4 1494.85 1714.45 1483.13C1795.73 1445.62 1873.36 1444.06 1902.01 1447.97C1912.43 1464.9 1946.56 1498.75 1999.7 1498.75Z"/><path fill="#032068" d="M2030.96 1315.14L2058.31 1385.46C2066.12 1382.86 2091.13 1355.77 2128.65 1268.26C2166.16 1180.76 2128.65 1132.84 2105.2 1119.81C2101.29 1080.75 2007.51 1014.34 1898.1 1029.96C1788.69 1045.59 1761.33 1151.07 1819.95 1186.23C1866.84 1214.35 1948.9 1203.15 1984.06 1194.04C1991.88 1209.66 1987.97 1283.89 2007.51 1252.64C2027.05 1221.38 2054.4 1237.01 2058.31 1268.26C2061.43 1293.26 2041.38 1309.93 2030.96 1315.14Z"/><path fill="#032068" d="M1987.97 1881.59C2023.14 2018.32 2114.91 2338.31 2306.95 2328.38L2226.33 2295.69C2107.54 2214.43 2017.93 1985.77 1987.97 1881.59Z"/><path fill="#032068" d="M2308.39 1959.72C2256.75 1908.09 2147.85 1803.61 2112.46 1785.48C2111.3 1784.94 2110.18 1784.42 2109.11 1783.93C2110.14 1784.34 2111.26 1784.86 2112.46 1785.48C2145.05 1800.59 2210 1833.12 2234.15 1854.25L2245.87 1791.74L2265.41 1881.59L2308.39 1959.72Z"/><path fill="#032068" d="M1464.36 1588.6L1644.11 1518.28C1619.1 1527.66 1633.69 1496.15 1644.11 1479.22L1464.36 1588.6Z"/><path fill="#032068" d="M1479.99 1885.5C1442.48 1766.74 1352.34 1708.4 1311.97 1694.08C1308.06 1721.42 1308.84 1789.4 1343.23 1842.53C1377.61 1895.66 1448.73 1893.31 1479.99 1885.5Z"/><path fill="#032068" d="M2183.35 2260.53C2267.75 2201.15 2382.64 2204.53 2429.53 2213.65C2417.81 2246.2 2380.29 2314.44 2324.02 2326.94C2267.75 2339.44 2206.8 2287.87 2183.35 2260.53Z"/><path fill="#032068" d="M2402.18 1139.82C2409.18 1131.37 2421.7 1130.19 2430.15 1137.19L2468.09 1168.6C2476.54 1175.6 2477.72 1188.12 2470.72 1196.57L1900.79 1884.48C1893.79 1892.92 1881.27 1894.1 1872.82 1887.1L1834.88 1855.69C1826.43 1848.69 1825.25 1836.17 1832.25 1827.72L2402.18 1139.82Z"/><path fill="#032068" d="M2906.25 1026.06C2906.25 1224.55 2745.3 1385.46 2546.75 1385.46C2348.21 1385.46 2187.26 1224.55 2187.26 1026.06C2187.26 827.565 2348.21 666.655 2546.75 666.655C2745.3 666.655 2906.25 827.565 2906.25 1026.06Z"/><path fill="#fff" d="M2828.1 1026.06C2828.1 1181.4 2702.14 1307.33 2546.75 1307.33C2391.37 1307.33 2265.41 1181.4 2265.41 1026.06C2265.41 870.716 2391.37 744.786 2546.75 744.786C2702.14 744.786 2828.1 870.716 2828.1 1026.06Z"/><path fill="#E7E8FF" fill-rule="evenodd" d="M2704.44 978.865C2697.67 953.229 2686.56 931.184 2674.12 914.931C2664.94 902.935 2662.59 885.672 2671.8 873.701C2681.01 861.73 2698.34 859.432 2708.43 870.665C2730.41 895.108 2747.74 928.59 2757.33 964.894C2769.81 1012.12 2770.11 1067.42 2747.68 1119C2708.07 1210.07 2623.27 1242.2 2556.81 1239.63C2541.72 1239.05 2532.07 1224.47 2535.03 1209.66C2537.99 1194.86 2552.49 1185.45 2567.59 1185.13C2613.87 1184.14 2670.28 1159.8 2697.51 1097.19C2714.12 1058.99 2714.42 1016.63 2704.44 978.865Z" clip-rule="evenodd"/><path fill="#032068" d="M1628.48 1795.65L1616.76 1858.15C1585.5 1867.53 1536 1877.69 1515.16 1881.59C1590.18 1856.59 1621.97 1813.88 1628.48 1795.65Z"/><path fill="#EFCB96" d="M2007.51 1850.34L2077.85 1791.74C2077.85 1780.02 2058.31 1768.3 2073.94 1729.24C2086.44 1697.99 2076.55 1682.36 2070.03 1678.45C2050.49 1697.99 2038.77 1720.64 2023.14 1701.89C2003.6 1678.45 1995.79 1627.67 1976.25 1627.67C1956.71 1627.67 1925.45 1682.36 1921.54 1697.99C1917.64 1713.61 1937.17 1772.21 1956.71 1787.84C1972.34 1800.34 1997.09 1834.71 2007.51 1850.34Z"/></svg>