<svg xmlns="http://www.w3.org/2000/svg" data-name="Layer 1" viewBox="0 0 2077.76 2077.76"><path fill="#f9c4cf" d="M1265.78 1295.81c-8.71 12-66.65-33.07-87.79-50.12s-111-115.2-116.83-133.51-13.37 2.44-13.48 51.82 41.82 103.29 64 114.32-10.38 72.44 6.11 101.32 44.92 70.46 86.36 65.27 67 7.6 79.91 15.87c18.56 11.91 56.62 64.31 53.75 83.92s79.92 45.79 93.71 32 18.92-41.38 29.31-39 54.11 42.71 78.47 41.7 141.17-49.26 160.87-81.21-21.33 15.08-69.63-6.86c-22.52-10.22-203.66-118.89-171.29-135s84 69.15 118.61 77.14 140.34 29.07 197.66-10.42 72.25-113.7 63.28-102.62c-20.75 25.62-241.42 24.85-229.28 5.62s47.5-40.21 96.22-42.23 107.85 9 133.41-15.3 60.18-80.48 49.66-119 0 0-26 17.23c-16.15 10.73-94.66 28.66-80.81-21.6s87.53-65 99-68.58 30.08-115.08 15.14-155-2.63 6.4-23.65 14.82-67.83 33-70.46 7.33 56.71-124 61-148.13 1.9-73.66-3.47-64.95-58.27 71-94.35 35.37 55.14-35.94 63.66-56.19 10.08-171-14.85-187.66c-11.4-7.6-63 45.57-132.8 57.09-43.83 7.24-46.92 116.73-59.7 107.51s-33.93-47.64-16.37-78.25-80.62 34.48-88.61 49.6-7.27 93.07-17.19 107-44.17 71.65-54.45 62.64-25.33-95.8-19.84-111.13-29.5 7.21-32.84 10.49 13.52 172.71-1.88 180.58-25.83-154.9-18.78-170.6-60.55 14.78-68.43 34-.22 152.21-16.34 157-97.83-72.35-89.95-91.54-26.75 26.26-26.86 43.57 9.33 83.25 34.53 121.51 88.4 113.31 68.22 118.24-60.91-18.85-98.9-66.33-63.92-99.55-61.17-112.55-30.92 54.43-29 77-19.1 73.75 60.94 147.15 129.9 118.68 121.18 130.67Zm345.61-201.15c10.63-10.82 63.18.2 88.62 3.86s55.23 26 46.85 43.8c-12.74 27.09-122.56 19.1-135.46 16.49s-20.19-16.46-22.7-27.36 12.06-25.97 22.69-36.79Zm171.76-242.2c8-13-.08 53.07-16.56 67s-96.91 22.43-108.2 13.46 118.94-71.02 124.76-80.46Zm-474.69 342c-28.84-34.49-12.6-51.2-1.5-51s61.65 67.36 68 83.33c14.67 37.15-37.65 2.21-66.5-32.28Z" opacity=".42"/><path fill="#9499c4" d="M647.51 1385.7c6.81 13.18-59.48 44.71-84.2 55.94s-152.76 47.44-171.75 44.45-3.83 13.05 40.24 35.32 111.08 9 130.9-5.89 60.07 41.8 93.28 40 83.12-8.5 97.1-47.86 36.88-56.48 50-64.27c19-11.24 82.89-21.72 99.13-10.35s76.8-50.85 70.65-69.37-28.48-35.49-21.67-43.69 62.47-29.17 72.5-51.4 19.36-148.25-.34-180.2 3.9 25.83-37.39 59.14c-19.24 15.53-197.67 128.59-197.55 92.43s99.49-44 122.19-71.34 89-112.35 79.44-181.3-69.16-115.6-63.29-102.62c13.58 30-86.19 226.88-97.92 207.39s-14.6-60.49 5.47-104.94 56.5-92.31 46.23-126.07-44.9-89.91-84.07-97.82 0 0 3.75 30.93c2.33 19.25-16.9 97.45-55.59 62.51s-18.74-107.38-16.83-119.25-89.33-78.55-131.73-83.14 4.54 5.22 2.63 27.79-1 75.43-25.09 66.25-85.38-106.37-105-121-65-34.77-59.59-26.06 37.25 83.94-10.76 100.18-7.36-65.4-21.62-82.11-148.31-85.8-174.36-71c-11.9 6.77 12.42 76.78-8.61 144.3C180.53 735.08 277 787 263 794.28s-57.81 8.93-77.27-20.5-5.39 87.51 4.53 101.45 79.89 48.28 87.89 63.39 44.19 71.65 31.53 76.78-97-20.38-108.21-32.16-6.81 29.59-5.38 34 160.4 65.46 160.51 82.76-150-46.47-160.87-59.82-14 60.74-.36 76.4 135.9 68.53 132.92 85.08-108.57 54.97-122.19 39.34 11.46 35.69 26.87 43.56 78.59 29 124.09 23.7 140.93-28.11 136.27-7.86-44.19 46-103.67 58.59-117.64 12.41-128 4.12 34.75 52.07 55.77 60.49 57.32 50.18 158.84 11.62 164.44-62.69 171.24-49.52ZM623 986.58c-4.89-14.36 28.55-56.37 43.24-77.45s48-37.68 60.17-22.2c18.49 23.55-38 118.09-46.08 128.44s-23.77 10.65-34.64 8-17.84-22.44-22.69-36.79ZM483.66 724.35c-8-13 47.38 23.9 52.4 44.86s-23.48 96.67-36.56 102.73-10.02-138.15-15.84-147.59Zm92.5 577.73c-43.77 10.29-51.41-11.72-46.28-21.57s87.88-24.84 105-23.32c39.76 3.54-14.95 34.6-58.72 44.89Z" opacity=".42"/><path fill="#22274d" d="m1261.86 1608-542.24 159.88a76.31 76.31 0 0 1-94.78-51.6L313.92 662.11a76.31 76.31 0 0 1 51.61-94.78l542.24-159.92a76.3 76.3 0 0 1 94.78 51.6l310.91 1054.16a76.31 76.31 0 0 1-51.6 94.83Z"/><path fill="#e8ebe7" d="M473.89 566.41h671.9v1025.91h-671.9z" transform="rotate(-16.43 810.019 1079.523)"/><circle cx="651.98" cy="539.34" r="25.74" fill="#1c203f" transform="rotate(-66.61 651.998 539.344)"/><path fill="#e8ebe7" d="M692.25 527.46a9.94 9.94 0 1 1 12.34 6.72 9.94 9.94 0 0 1-12.34-6.72Z"/><circle cx="603.04" cy="553.78" r="9.93" fill="#e8ebe7" transform="rotate(-16.1 602.837 553.645)"/><path fill="#9499c4" d="M337.08 586.17h671.9v58.7h-671.9z" transform="rotate(-16.43 673.173 615.6)"/><path fill="#464457" d="m921.92 1670.08 114.34-33.72a21.68 21.68 0 0 0 14.66-26.92 21.68 21.68 0 0 0-26.92-14.66l-114.34 33.72a21.68 21.68 0 0 0-14.66 26.92 21.67 21.67 0 0 0 26.92 14.66Z"/><path fill="#fff" d="M359.22 681.36h57.8v8.13h-57.8z" transform="rotate(-16.43 388.188 685.542)"/><path fill="#fff" d="M363.05 694.35h57.8v8.13h-57.8z" transform="rotate(-16.43 392.039 698.543)"/><path fill="#fff" d="M366.98 707.67h57.8v8.13h-57.8z" transform="rotate(-16.43 395.953 711.836)"/><path fill="#fff" d="M933.36 530.26h21.76v10.53h-21.76z" transform="rotate(-16.43 944.405 535.61)"/><path fill="#fff" d="m958.32 545.06 14.48-15.22a3 3 0 0 0-1.48-5l-20.43-4.93a3 3 0 0 0-3.61 3.8l5.94 20.15a3 3 0 0 0 5.1 1.2Z"/><path fill="#fff" d="M903.12 539.18h21.76v10.53h-21.76z" transform="rotate(-16.43 914.165 544.502)"/><path fill="#fff" d="m907.35 560.09-20.43-4.93a3 3 0 0 1-1.48-5l14.48-15.23a3 3 0 0 1 5.1 1.23L911 556.3a3 3 0 0 1-3.65 3.79ZM913.07 1401.23c-12 3.63-133.22-18-231.15-140.27S515.05 970.77 515.05 970.77 554.78 878.33 737.93 823c192.52-58.18 268.9 2 268.9 2s35.37 171.67 22.69 326c-12.79 155.61-100.26 245.33-116.45 250.23Z"/><path fill="#4d5173" d="M905.91 1373.15c-10.87 3.28-120.52-16.3-209.11-126.89S545.86 983.75 545.86 983.75s34.89-87.23 201.62-133.7c227.95-63.54 249.07.65 243.24 1.83 0 0 32 155.29 20.53 294.89-11.57 140.79-90.7 221.95-105.34 226.38Z"/><path fill="#a21c35" d="m706.69 974.07 141.62-42.8a53.32 53.32 0 0 1 66.46 35.61l42.81 141.63A53.33 53.33 0 0 1 922 1175l-141.63 42.8a53.31 53.31 0 0 1-66.46-35.61l-42.8-141.63a53.31 53.31 0 0 1 35.58-66.49Z"/><path fill="#fff" d="M847.86 1028.46 809.59 1040l-1.92-6.35q-3.06-10.12-5.33-12.86t-6.63-1.4a6.08 6.08 0 0 0-4.44 4.28c-.63 2.16-.4 5 .69 8.63q2.73 9 7.41 11.51t24.89 7.78q17.24 4.39 24 7.49t12.95 10.55q6.24 7.47 10.11 20.26 6.18 20.46-.15 35.09t-25.2 23.33l4.35 14.4-17.62 5.32-4.49-14.87a48 48 0 0 1-30.37-3.69q-14.58-6.81-22.3-32.39l-2.26-7.48 38.27-11.57 2.83 9.38q4.67 15.43 7 18.82c1.55 2.26 3.83 2.93 6.86 2a6.94 6.94 0 0 0 5-4.35q1.11-3.18-.43-8.29-3.9-12.89-7.37-17.88t-16-8.36q-20.83-5.69-28.7-9t-15.29-11.25a49.62 49.62 0 0 1-11-19.82q-5.19-17.14 1.58-29.84t25.49-20.83l-3.7-12.22 17.62-5.33 3.69 12.22q18.4-3.07 30.12 3.87t16.84 23.91c.45 1.67 1.04 4.11 1.77 7.4Z"/><path fill="#e0a995" d="M1274.79 1280.69c58.76-85.28 31.11-163.94 73.75-242.91 41.29-76.49 353.88-110.51 389.28-54.84s-463.03 297.75-463.03 297.75Z"/><path fill="#fabca6" d="M1634.79 1467.06c-.31.5-.63 1-.94 1.51-.94 1.57-1.95 3.2-3 4.83-76.8 124.28-231.45 332.65-230.62 452.53h-384.81c58-89.65 140.41-217.46 161.49-328v-.12c26-136.54 451-130.89 457.82-130.76Z"/><path fill="#fabca6" d="M1737.82 982.94c46 86.42-66.3 385-93.44 464.48s-298.77 317.74-385 314.09-112.81-264.44-50.1-386.57c122.54-238.77 528.54-392 528.54-392Z"/><path fill="#e0a995" d="M1332.94 1075.33c15.6-37.55 33.89-108 14.08-102.56s-66.85 71.72-94.42 81.73-48.32-1.07-48.32-1.07l53-127.67L1385.46 852l63.76 38.34 17.69 99Z"/><path fill="#e6ad99" d="M1219 925.38c-12.29 50.85-39.29 102.73-29.15 120.6s95.48-32.63 115.22-84.85 94.61-54.28 106.45-47.41-22.37 179.68-29.46 202.17 78.33-35.57 122.63-71.78 37.85-232-28.82-250-227.74 10.68-256.87 131.27Z"/><path fill="#efb49f" d="M1260.52 758.35C1207 789.65 1201 800.6 1129.51 900c-43.75 60.84 24.47 66.24 75.15 35.12 34.09-20.93 59.74-52.24 97.75-80.34s151.57-16 165.89-10.1 34.25 169.31 36.36 199.45 163.74-49 163.74-49l-92.79-269.71-122.48-36.24Z"/><path fill="#fabca6" d="M1737.82 982.94c-58.43-182.56-122.13-310.17-187-337.12-114.8-47.68-377.21 75.23-369.71 99.43s56.39 40.38 97.33 40.43 166.45-42.51 201.09-27.07c96.59 43 82.5 291.48 84.31 305.89s184.09-49.98 173.98-81.56Z"/><path fill="#9499c4" d="m1856.08 701.26-207.43 284.9a31.49 31.49 0 0 1-44 6.92l-509.76-371.14a31.4 31.4 0 0 1-10.89-14.38c-.3-.77-.55-1.57-.78-2.35a31.38 31.38 0 0 1 4.79-27.28L1295.4 293a31.51 31.51 0 0 1 44-6.93l509.75 371.15a31.51 31.51 0 0 1 11.43 35.16 28.93 28.93 0 0 1-1.12 2.93 30 30 0 0 1-3.38 5.95Z"/><path fill="#edf3f9" d="m1363.87 303.91-98.44 30.28 2.44-3.35 93.49-28.75 2.51 1.82zM1416.39 342.15l-201.99 62.12 2.44-3.35 197.04-60.59 2.51 1.82zM1468.89 380.38l-305.51 93.97 2.44-3.35 300.56-92.45 2.51 1.83zM1521.41 418.62l-409.07 125.83 2.44-3.35 404.12-124.31 2.51 1.83zM1573.93 456.86l-490 150.7c-.3-.77-.55-1.57-.78-2.35L1571.42 455ZM1626.43 495.08 1130.27 647.7l-2.51-1.83 496.16-152.61 2.51 1.82zM1678.95 533.33l-496.16 152.61-2.51-1.83 496.16-152.61 2.51 1.83zM1731.47 571.57l-496.18 152.59-2.51-1.82 496.18-152.6 2.51 1.83zM1783.97 609.79 1287.81 762.4l-2.51-1.82 496.16-152.62 2.51 1.83zM1836.49 648.03l-496.16 152.61-2.51-1.82 496.17-152.62 2.5 1.83zM1859.47 695.34l-466.64 143.53-2.51-1.83 470.27-144.63a28.93 28.93 0 0 1-1.12 2.93ZM1812.07 761.71l-2.44 3.35-364.28 112.05-2.51-1.83 369.23-113.57zM1761.03 831.81l-2.44 3.35-260.72 80.19-2.51-1.83 265.67-81.71zM1710.01 901.89l-2.43 3.33-157.21 48.35-2.51-1.82 162.15-49.86zM1658.98 971.97l-2.44 3.35-53.65 16.49-2.51-1.82 58.6-18.02z"/><path fill="#e8ebe7" d="m1409.21 504.83-129.48-94.28a16.32 16.32 0 0 1-3.59-22.8l33.39-45.86a16.32 16.32 0 0 1 22.8-3.59l129.49 94.28a16.32 16.32 0 0 1 3.58 22.8l-33.4 45.86a16.32 16.32 0 0 1-22.79 3.59Z"/><path fill="#a21c35" d="M1473.81 844.51h142.33v62.89h-142.33z" transform="rotate(36.06 1544.92 875.887)"/><path fill="#fff" d="M1197.75 485.22H1228v30.25h-30.25z" transform="rotate(36.06 1212.824 500.302)"/><path fill="#fff" d="M1229.23 508.14h30.25v30.25h-30.25z" transform="rotate(36.06 1244.31 523.233)"/><path fill="#fff" d="M1260.71 531.07h30.25v30.25h-30.25z" transform="rotate(36.06 1275.79 546.147)"/><path fill="#fff" d="M1292.2 553.99h30.25v30.25h-30.25z" transform="rotate(36.06 1307.271 569.062)"/><path fill="#fff" d="M1341.57 589.94h30.25v30.25h-30.25z" transform="rotate(36.06 1356.641 605.028)"/><path fill="#fff" d="M1373.06 612.86h30.25v30.25h-30.25z" transform="rotate(36.06 1388.122 627.943)"/><path fill="#fff" d="M1404.54 635.79h30.25v30.25h-30.25z" transform="rotate(36.06 1419.602 650.857)"/><path fill="#fff" d="M1436.02 658.71h30.25v30.25h-30.25z" transform="rotate(36.06 1451.103 673.783)"/><path fill="#fff" d="M1485.4 694.66h30.25v30.25h-30.25z" transform="rotate(36.06 1500.469 709.733)"/><path fill="#fff" d="M1516.89 717.58h30.25v30.25h-30.25z" transform="rotate(36.06 1531.954 732.663)"/><path fill="#fff" d="M1548.37 740.51h30.25v30.25h-30.25z" transform="rotate(36.06 1563.435 755.578)"/><path fill="#fff" d="M1579.85 763.43h30.25v30.25h-30.25z" transform="rotate(36.06 1594.915 778.493)"/><path fill="#22274d" d="M1159.18 620.68c-1.23-.28-2.35-.51-3.37-.7a32.37 32.37 0 0 1-3.78-1 40.38 40.38 0 0 1-4-1.63 27.5 27.5 0 0 1-4.26-2.58 28.28 28.28 0 0 1-6.66-6.62 18.89 18.89 0 0 1-3.23-7.91 20.36 20.36 0 0 1 .66-8.94 30.83 30.83 0 0 1 4.94-9.67 30.52 30.52 0 0 1 7.42-7.42 21.06 21.06 0 0 1 8.37-3.46 19.78 19.78 0 0 1 8.59.49 26.24 26.24 0 0 1 8.55 4.23 32.13 32.13 0 0 1 5.57 5.19 40.3 40.3 0 0 1 4.87 7.52l-4.36 6-.38-.28a28.11 28.11 0 0 0-3.43-8.35 22.63 22.63 0 0 0-5.73-6 17 17 0 0 0-5.86-2.85 14 14 0 0 0-6.22-.1 16.38 16.38 0 0 0-6.26 2.83 26.26 26.26 0 0 0-5.89 6 24 24 0 0 0-3.92 7.67 17 17 0 0 0-.62 6.71 13.65 13.65 0 0 0 2.13 5.83 17.55 17.55 0 0 0 4.37 4.57 23.23 23.23 0 0 0 7.74 3.72 24.27 24.27 0 0 0 8.69.59l.36.26ZM1194.22 650.4l-5.37-3.91 4-13.29-16.41-11.94-11.44 7.86-5.12-3.73 41.43-27.88 6.73 4.9Zm.21-22.66 6.91-23.47L1181.1 618ZM1231.37 677.45l-6.55-4.77-1.7-24.32-7.11-5.18-11 15.08-5-3.67 27.62-37.94 10.63 7.74a38.76 38.76 0 0 1 5.41 4.62 14.75 14.75 0 0 1 3 4.6 11.73 11.73 0 0 1 .84 5.62 12 12 0 0 1-2.48 5.85 13.81 13.81 0 0 1-7.07 5.36 15.52 15.52 0 0 1-8.71 0Zm8.05-35.85a8.47 8.47 0 0 0 1.54-3.31 6.25 6.25 0 0 0-.35-3.51 8.63 8.63 0 0 0-1.85-2.93 23.49 23.49 0 0 0-3.33-2.87l-5.94-4.32-10.42 14.34 5.1 3.71a22.93 22.93 0 0 0 4.48 2.62 8.18 8.18 0 0 0 7.66-.58 12.12 12.12 0 0 0 3.11-3.15ZM1282.1 685.41a24.18 24.18 0 0 1-9.08 7.74 20.85 20.85 0 0 1-10.75 2.15 23 23 0 0 1-7.49-1.9 49.72 49.72 0 0 1-8.94-5.42l-9.58-7 27.62-37.94 9.48 6.9a48.16 48.16 0 0 1 8.25 7.23 23.94 23.94 0 0 1 3.93 6.24 20.92 20.92 0 0 1 1.35 10.84 24.58 24.58 0 0 1-4.79 11.16Zm-5.22-3.91a20.45 20.45 0 0 0 3.92-8.65 14.11 14.11 0 0 0-1.13-8.19 19.46 19.46 0 0 0-3.48-5.24 38.26 38.26 0 0 0-5.68-4.89l-4.73-3.45-21.32 29.27 4.74 3.45a40.92 40.92 0 0 0 6.75 4.09 17.6 17.6 0 0 0 6.42 1.64 14.15 14.15 0 0 0 7.72-1.67 21.31 21.31 0 0 0 6.79-6.36ZM1323.75 744.71l-6.24-4.54 6.72-47-24.7 33.94-4.72-3.43 27.62-37.94 7.83 5.69-6.15 42.93 22.55-31 4.72 3.43ZM1363.76 773.83l-5.38-3.91 4-13.28-16.38-11.95-11.42 7.87-5.12-3.73 41.38-27.83 6.73 4.89Zm.2-22.65 6.91-23.47-20.24 13.76ZM1403.3 802.63l-5-3.68 23.8-32.69-26.74 14.57-3-2.19 5.73-29.87-23.8 32.69-4.72-3.43 27.63-37.94 6.87 5-5.26 28.48 25.16-14 7 5.1ZM1438.48 828.24l-25-18.19 27.62-37.94 25 18.2-3.26 4.48-19.95-14.52-7.57 10.39 20 14.53-3.26 4.48-20-14.53-10.26 14.09 20 14.53Z"/><path fill="#fabca6" d="M1274.79 1280.69C1324.52 1230 1429 1081 1432.51 901s17.77-233.17 65.84-271.41 58.61 48 63.76 90.18 23.33 313 54.58 378.68 19.87 168.21 20 205.35-361.9-23.11-361.9-23.11Z"/><path fill="#22274d" d="M1080.21 277.52a47.65 47.65 0 0 0-12.16-2.75l-17.55-1.55-130.15-11.54-17.55-1.56a47.33 47.33 0 0 0-12.46.57c-19.9 3.5-35.71 19.45-37.53 39.94l-13.59 153.21c-2.18 24.63 16.66 46.43 42.09 48.68l165.25 14.66c25.42 2.25 47.8-15.89 50-40.52l13.58-153.21c1.86-20.45-10.95-38.98-29.93-45.93Z"/><path fill="#a21c35" d="M1079.19 289a47.23 47.23 0 0 0-12.16-2.75l-17.55-1.56-130.15-11.55-17.55-1.56a47.66 47.66 0 0 0-12.45.57c-19.9 3.5-35.72 19.45-37.54 40l-13.58 153.16c-2.21 24.63 16.65 46.42 42.08 48.69l165.25 14.65c25.42 2.25 47.81-15.89 50-40.52l13.58-153.21c1.81-20.5-10.95-38.99-29.93-45.92Z"/><path fill="#a21c35" d="m919.33 273.14 3.86-43.53c2.41-27.2 27.36-47.41 55.43-44.92l28.07 2.49c28.07 2.49 49.06 26.77 46.65 54l-3.86 43.53 17.55 1.56a47.23 47.23 0 0 1 12.16 2.75l5.37-60.52c3.2-36-24.63-68.23-61.83-71.53l-54.58-4.84c-37.21-3.3-70.26 23.49-73.46 59.53l-5.36 60.52a47.66 47.66 0 0 1 12.45-.57Z"/><path fill="#e8ebe7" d="m997.42 444.67-11.73-29.8a27.61 27.61 0 1 0-26.46-2.35l-16.8 27.27Z"/></svg>