<svg xmlns="http://www.w3.org/2000/svg" enable-background="new 0 0 750 700" viewBox="0 0 750 700"><path fill="#d4e3f6" d="M375.084 603.714H257.892c-.613 0-1.11-.559-1.11-1.248s.497-1.248 1.11-1.248h117.192c.613 0 1.11.559 1.11 1.248s-.497 1.248-1.11 1.248z"/><path fill="#d4e3f6" d="M317.026 602.194c.275-1.373.477-3.014.636-4.56.143-1.573.26-3.162.306-4.758.1-3.19.064-6.413-.197-9.625-.264-3.208-.632-6.43-1.25-9.604-.556-3.194-1.373-6.325-2.257-9.449 1.226 2.966 2.402 5.986 3.328 9.118.986 3.112 1.731 6.32 2.374 9.566.64 3.249 1.057 6.558 1.33 9.9.25 3.377.372 6.643.106 10.248l-4.376-.836zM322.497 603.03c-.084-2.15.074-3.945.293-5.857.235-1.875.55-3.719.988-5.517.439-1.797.934-3.562 1.56-5.264.593-1.712 1.322-3.351 2.075-4.95-.41 1.756-.78 3.507-1.004 5.281-.258 1.763-.376 3.542-.436 5.302-.06 1.76.006 3.518.145 5.242.068.863.173 1.718.293 2.559.126.813.283 1.721.462 2.368l-4.376.836zM311.829 602.194c.179-.647.335-1.555.462-2.368a46.044 46.044 0 0 0 .438-7.8c-.06-1.76-.178-3.54-.436-5.303-.224-1.774-.594-3.525-1.004-5.281.752 1.599 1.481 3.238 2.074 4.95.626 1.702 1.122 3.467 1.56 5.264.439 1.798.754 3.642.988 5.517.22 1.912.378 3.706.294 5.857l-4.376-.836z"/><path fill="#bfc0ff" d="M495.724 595.361a95.428 95.428 0 0 1-.378 5.869 87.876 87.876 0 0 1-.38 3.178h5.154c.07-3.125-.066-6.108-.293-9.162-1.092-13.381-4.012-23.979-8.671-35.247 3.298 11.653 4.978 22.318 4.568 35.362zM506.211 604.408l-.076-.476a50.278 50.278 0 0 1-.361-3.155c-.573-7.103.082-13.03 1.596-19.515-2.915 6.193-4.78 12.033-5.7 19.399a60.93 60.93 0 0 0-.33 3.747h4.871zM489.263 594.313c.073 2.171-.008 4.338-.18 6.464a50.37 50.37 0 0 1-.36 3.155c-.024.155-.051.316-.077.476h4.872a61.025 61.025 0 0 0-.33-3.747c-.29-2.313-.678-4.586-1.218-6.804-1.256-5.136-2.524-8.433-4.483-12.595 1.042 4.458 1.6 7.878 1.776 13.05z"/><path fill="#98b1e6" d="M577.156 593.645c-37.215 0-75.453-19.241-115.9-23.004-34.336-3.194-68.438.843-101.418 4.747-41.862 4.955-85.148 10.08-128.036-.056-46.778-11.06-83.395-29.059-108.836-53.495-14.722-14.136-25.87-31.197-32.237-49.338-6.75-19.234-7.7-38.799-2.746-56.58 4.6-16.506 14.06-31.586 20.226-47.544 5.248-13.552 9.55-33.08.242-49.149-4.725-8.143-12.459-14.475-19.937-20.598-7.311-5.985-14.87-12.174-19.728-20.102C61.24 266.2 60.515 249.68 66.8 233.2c5.618-14.76 15.6-27.582 25.254-39.982 22.793-29.313 48.628-62.538 84.923-82.205 18.213-9.861 39.463-15.337 59.834-15.42h.474c22.067 0 41.41 6.255 55.966 18.102 10.66 8.684 18.447 20.057 25.976 31.056 8.112 11.848 16.5 24.1 28.45 32.855 19.93 14.602 49.5 18.978 81.121 12.006 21.97-4.834 42.717-14.176 62.78-23.21 5.196-2.34 10.569-4.76 15.877-7.061 24.072-10.44 52.659-20.91 82.175-19.392 26.305 1.354 52.027 12.941 72.425 32.627 19.608 18.922 32.606 43.342 36.598 68.762 3.808 24.25.821 49.68-8.88 75.583-8.676 23.17-22.85 46.49-40.987 67.441-3.673 4.242-7.55 8.47-11.3 12.558-10.823 11.8-22.014 24.003-29.594 37.983-9.144 16.883-13.941 41.452.018 59.778 12.085 15.848 36.558 24.453 41.526 43.657 5.184 20.04-14.446 38.574-36.2 48.053-12 5.227-23.993 7.254-36.079 7.254zm-141.969-25.16c32.583 0 49.42 4.17 80.653 12.772 33.607 9.257 65.35 18.001 96.996 4.217 21.364-9.309 40.666-27.417 35.63-46.886-4.876-18.858-29.085-27.215-41.352-43.301-14.248-18.705-9.395-43.703-.102-60.86 7.638-14.09 18.872-26.338 29.736-38.183 3.745-4.083 7.617-8.305 11.28-12.536 38.716-44.72 56.807-96.556 49.635-142.215-8.431-53.694-55.909-97.86-108.086-100.546-29.303-1.506-57.759 8.917-81.725 19.311-5.302 2.3-10.672 4.718-15.865 7.056-20.11 9.055-40.904 18.418-62.974 23.275-31.902 7.034-61.765 2.596-81.928-12.176-12.088-8.856-20.525-21.18-28.684-33.097-7.49-10.94-15.235-22.253-25.782-30.845-32.916-26.793-82.773-20.119-115.167-2.579-36.11 19.568-61.877 52.704-84.61 81.94-9.608 12.342-19.544 25.105-25.109 39.724-6.173 16.19-5.478 32.39 1.906 44.447 4.769 7.784 12.262 13.919 19.508 19.852 7.548 6.18 15.353 12.569 20.169 20.87 9.507 16.413 5.153 36.255-.174 50.011-6.162 15.947-15.632 31.074-20.196 47.451-9.707 34.843 3.594 75.05 34.713 104.929 25.31 24.31 61.772 42.224 108.373 53.243 42.714 10.094 85.913 4.98 127.689.036 24.644-2.918 49.92-5.91 75.466-5.91z"/><path fill="#d4e3f6" d="M423.06 600.736h-83.843c-.607 0-1.097-.553-1.097-1.234s.49-1.233 1.097-1.233h83.843c.606 0 1.097.552 1.097 1.233s-.49 1.234-1.097 1.234z"/><path fill="#d4e3f6" d="M380.885 598.921c8.415-28.62 4.484-54.446-.53-83.832-1.6-9.335-3.07-18.802-6.879-27.378 4.14 8.381 6 17.885 7.95 27.119 6.317 29.977 11.152 55.781 3.652 85.542l-4.193-1.45zM362.452 598.948c-13.23-32.391-11.556-70.154 4.433-101.157-16.762 29.297-20.828 66.772-9.123 101.157h4.69zM369.821 599.342a106.546 106.546 0 0 0-4.398-37.66c5.078 11.58 8.122 24.465 8.785 37.688l-4.387-.028z"/><path fill="#4285f4" d="M438.816 190.9 408.31 569.52c-1.42 17.615 11.816 31.9 29.588 31.9h174.278c17.758 0 33.31-14.285 34.73-31.9L677.412 190.9c1.419-17.615-11.832-31.9-29.59-31.9H473.546c-17.772 0-33.31 14.285-34.73 31.9z"/><path fill="#fff" d="m453.023 190.892-30.506 378.621c-.791 9.82 6.611 17.815 16.51 17.815h174.286c9.899 0 18.603-7.995 19.395-17.814l30.506-378.622c.16-1.995-.017-3.925-.5-5.709-1.831-7.03-8.138-12.092-16.025-12.092h-38.37c-2.896 7.52-10.386 13.004-18.713 13.004h-62.203c-8.34 0-14.946-5.484-16.618-13.004h-38.382c-9.899 0-18.589 7.982-19.38 17.8z"/><path fill="#185abc" d="M612.177 601.424h13.95c17.755 0 33.31-14.288 34.73-31.902l30.506-378.627c1.42-17.613-11.833-31.9-29.59-31.9h-13.95c17.757 0 31.01 14.287 29.59 31.9l-30.506 378.627c-1.42 17.614-16.974 31.902-34.73 31.902z"/><path fill="#d4e3f6" d="m573.684 203.645 4.57 53.232 80.808-14.458 4.152-51.527c.16-1.995-.017-3.925-.5-5.709l-89.03 18.462zM527.715 228.575l2.097 22.237 22.71-3.855-2.097-22.238zM530.509 263.99l2.098 22.238 22.71-3.855-2.098-22.238zM533.303 299.406l2.098 22.237 22.71-3.855-2.098-22.238zM589.428 281.073l11.683 83.33 36.965-7.892-11.683-83.33zM450.301 224.596l42.169-8.871 4.732 77.077-53.125 9.045zM625.17 387.92l18.357 47.312 4.166-51.712zM561.574 358.9l4.262 62.103-133.283 23.87 9.433-117.077 58.564-9.004 2.317 49.894zM431.094 462.982l108.3-15.838 2.092 18.767-112.092 18.172zM427.585 506.537l121.287-19.1 5.854 40.993-130.703 22.321zM595.048 448.556c-9.497 0-17.811 7.637-18.57 17.057-.76 9.42 6.324 17.058 15.821 17.058s17.811-7.637 18.57-17.058-6.324-17.057-15.821-17.057z"/><path fill="#98b1e6" d="M510.346 271.699a1 1 0 0 1-.995-.911l-.535-5.976a1 1 0 0 1 1.992-.179l.535 5.976a1 1 0 0 1-.997 1.09zM587.464 418.377l-1.375-11.83a1 1 0 1 1 1.986-.231l1.375 11.83a1 1 0 1 1-1.986.231zm-2.75-23.661-1.376-11.83a1 1 0 1 1 1.986-.232l1.376 11.83a1 1 0 1 1-1.987.232zm-2.752-23.662-1.375-11.83a1 1 0 1 1 1.987-.231l1.375 11.83a1 1 0 1 1-1.987.231zm-57.323-21.308c-.483 0-.915-.347-.995-.837a.992.992 0 0 1 .882-1.156l11.699-1.875a1 1 0 1 1 .316 1.975l-11.742 1.88a.993.993 0 0 1-.16.013zm54.573-2.353-.028-.236a5.803 5.803 0 0 0-5.759-5.138c-.674 0-1.093.11-1.602.182a1 1 0 1 1-.316-1.975c.489-.067 1.046-.207 1.918-.207a7.802 7.802 0 0 1 7.746 6.907l.027.236a1 1 0 1 1-1.986.23zm-31.07-1.411a1 1 0 0 1-.156-1.988l11.76-1.884a1 1 0 1 1 .316 1.975l-11.76 1.884a.985.985 0 0 1-.16.013zm-31.427-3.105a1 1 0 0 1-.995-.911l-1.062-11.863a1 1 0 0 1 1.992-.178l1.062 11.863a1 1 0 0 1-.997 1.089zm-2.123-23.726a1 1 0 0 1-.995-.911l-1.062-11.863a1 1 0 0 1 1.992-.178l1.062 11.863a1 1 0 0 1-.997 1.089zm-2.123-23.726a1 1 0 0 1-.995-.911l-1.062-11.863a1 1 0 0 1 1.992-.178l1.062 11.863a1 1 0 0 1-.997 1.089zM589.536 436.2l-.693-5.96a1 1 0 1 1 1.986-.232l.532 4.573c2.823-.415 4.957-.342 5.113-.347a1 1 0 0 1-.01 2l-.343-.002a30.79 30.79 0 0 0-4.736.368 1 1 0 0 1-1.85-.4zM613.879 486.858a1 1 0 0 1 .004-1.415 32.79 32.79 0 0 0 6.498-9.128 1 1 0 0 1 1.804.862 34.787 34.787 0 0 1-6.892 9.685 1 1 0 0 1-1.414-.004zm10.424-20.248c-.027 0-.054 0-.081-.003a1 1 0 0 1-.917-1.077c.064-.79.096-1.588.096-2.37 0-2.993-.463-5.915-1.376-8.683a1 1 0 0 1 1.9-.627 29.636 29.636 0 0 1 1.476 9.31c0 .835-.035 1.687-.103 2.53a1 1 0 0 1-.995.92zm-7.148-21.38a.998.998 0 0 1-.738-.323 26.31 26.31 0 0 0-9.057-6.41 1 1 0 0 1 .79-1.838 28.3 28.3 0 0 1 9.741 6.895 1 1 0 0 1-.736 1.677zM599.001 501.871a1 1 0 0 1-.916-1.077l.452-5.614-.018-.09a1 1 0 0 1 .722-1.158 32.181 32.181 0 0 0 5.453-2.013 1 1 0 0 1 .859 1.806 34.294 34.294 0 0 1-5.048 1.929l-.427 5.3a1 1 0 0 1-1.077.917zM596.724 531.139a1 1 0 0 1-.998-1.08l1.18-14.633a.988.988 0 0 1 1.077-.916 1 1 0 0 1 .916 1.077l-1.179 14.632a1 1 0 0 1-.996.92zM595.064 551.751a1 1 0 0 1-.998-1.08l.482-5.98a.988.988 0 0 1 1.077-.917 1 1 0 0 1 .916 1.077l-.482 5.98a1 1 0 0 1-.995.92z"/><path fill="#ea4234" d="M478.496 199.494c-2.368 29.389 27.582 57.383 27.582 57.383s34.461-27.994 36.83-57.383c1.42-17.644-11.845-31.946-29.632-31.946-17.788 0-33.358 14.302-34.78 31.946z"/><ellipse cx="510.701" cy="199.494" fill="#fff" rx="20.338" ry="18.763" transform="rotate(-40.977 510.701 199.494)"/><path fill="#fbbc04" d="M569.783 515.329c-1.937 24.045 22.567 46.95 22.567 46.95s28.196-22.904 30.134-46.95c1.163-14.436-9.691-26.138-24.245-26.138-14.553 0-27.293 11.702-28.456 26.138z"/><ellipse cx="596.133" cy="515.329" fill="#fff" rx="16.64" ry="15.351" transform="rotate(-40.977 596.133 515.329)"/><path fill="#074a9b" d="M258.025 145.058s-12.274.045-23.23 7.553c-10.955 7.508-8.457-14.122-8.457-14.122l6.478-2.436"/><path fill="#30355c" d="M316.048 252.482s-25.48 68.9-56.811 71.636c-23.014 2.012-56.3-50.383-56.3-50.383l22.536-47.301s15.39 4.263 34.697 42.384l29.743-32.735c7.964-7.86 31.612 5.178 26.135 16.399z"/><path fill="#ea4234" d="M163.618 358.272H69.946a6.442 6.442 0 0 1-6.442-6.442V215.944a6.442 6.442 0 0 1 6.442-6.442h93.672a6.442 6.442 0 0 1 6.442 6.442V351.83a6.442 6.442 0 0 1-6.442 6.442z"/><path fill="#d32118" d="M162.419 278.524H55.146c-3.299 0-5.703-2.103-5.37-4.696l7.985-62.118c.333-2.593 3.278-4.696 6.576-4.696H171.61c3.299 0 5.703 2.103 5.37 4.696l-7.984 62.118c-.334 2.593-3.278 4.696-6.577 4.696z"/><path fill="#d4e3f6" d="M225.122 554.916v26.43l-22.674 3.05-5.124-3.233-1.07-11.696v-24.799z"/><linearGradient id="a" x1="-4239.106" x2="-4271.273" y1="664.656" y2="705.742" gradientTransform="translate(4479.06 -95.754)" gradientUnits="userSpaceOnUse"><stop offset="0" stop-color="#191923"/><stop offset="1" stop-color="#0c0c14"/></linearGradient><path fill="url(#a)" d="M262.643 595.268h-.013a20.28 20.28 0 0 1-.808 2.347 4.324 4.324 0 0 1-2.96 2.543c-.652.156-1.356.312-2.086.443-15.881 3-49.103.952-59.495.195a4.37 4.37 0 0 1-3.977-3.39c-.208-.9-.391-1.76-.574-2.62-2.399-12.321-2.62-23.522 3.52-25.321 1.5-.43 2.974 5.098 4.577 6.31 3.625 2.752 11.07 3.769 15.607 1.76.861-.39 1.604-.873 2.217-1.473 2.66-2.647.065-11.252 7.51-10.522 6.324.613 5.503 5.45 6.585 7.745.795 1.708 2.034 3.025 3.533 4.081 6.48 4.472 18.124 3.847 23.365 7.028a6.47 6.47 0 0 1 1.278.978c2.869 2.868 2.556 6.872 1.721 9.896z"/><path fill="#4285f4" d="M262.64 595.274h-.014a20.28 20.28 0 0 1-.808 2.347 4.324 4.324 0 0 1-2.96 2.542c-.652.157-1.356.313-2.086.443-15.881 3-49.103.953-59.495.196a4.371 4.371 0 0 1-3.977-3.39c-.208-.9-.39-1.76-.574-2.621l.013-.013s31.722 2.983 53.523 2.369a8.539 8.539 0 0 0 8.043-6.45c.262-1.052.558-1.993.863-2.581.691-1.37 1.67-2.673 3.051-3.325a4.536 4.536 0 0 1 1.421-.391c.483.286.913.612 1.278.978 2.869 2.868 2.556 6.87 1.721 9.896z"/><linearGradient id="b" x1="-4244.35" x2="-4231.435" y1="677.478" y2="677.478" gradientTransform="translate(4479.06 -95.754)" gradientUnits="userSpaceOnUse"><stop offset="0" stop-color="#ececec"/><stop offset=".987" stop-color="#e0e0e0"/></linearGradient><path fill="url(#b)" d="M247.374 586.486h-.005a.25.25 0 0 1-.245-.254c.046-2.66-1.829-4.96-2.12-5.302-4.088-1.546-9.885 1.72-9.944 1.752l-.35-.321c1.875-4.07 1.603-5.012 1.59-5.05a.242.242 0 0 1 .122-.325.257.257 0 0 1 .337.125c.074.155.338 1.087-1.296 4.795 1.683-.838 6.253-2.799 9.78-1.42l.094.065c.095.106 2.34 2.625 2.287 5.69a.25.25 0 0 1-.25.245z"/><linearGradient id="c" x1="-4252.281" x2="-4228.144" y1="677.076" y2="677.076" gradientTransform="translate(4479.06 -95.754)" gradientUnits="userSpaceOnUse"><stop offset="0" stop-color="#ececec"/><stop offset=".987" stop-color="#e0e0e0"/></linearGradient><path fill="url(#c)" d="m240.223 584.621-.266-.02c-.65-.485-1.023-1.103-1.105-1.838-.15-1.339.708-2.69 1.124-3.255-5.32-1.99-12.815-.314-12.892-.296a.25.25 0 1 1-.111-.487c.325-.075 8.023-1.794 13.5.441l.096.394c-.013.016-1.39 1.648-1.22 3.149.062.545.326 1.013.786 1.395 1.012-.515 6.808-3.34 10.58-2.58a.25.25 0 1 1-.099.49c-3.882-.784-10.329 2.573-10.393 2.607z"/><linearGradient id="d" x1="-4257.659" x2="-4238.381" y1="668.632" y2="668.632" gradientTransform="translate(4479.06 -95.754)" gradientUnits="userSpaceOnUse"><stop offset="0" stop-color="#ececec"/><stop offset=".987" stop-color="#e0e0e0"/></linearGradient><path fill="url(#d)" d="M228.61 577.911c-2.32 0-4.94-.309-6.288-1.523-.654-.588-.962-1.341-.917-2.238.041-.834.36-1.396.948-1.67 2.353-1.1 8.542 3.214 10.142 4.378.12-1.59.696-6.737 3.222-8.452.923-.626 2.004-.729 3.213-.304 1.072.376 1.657.96 1.74 1.736.307 2.922-7.169 7.514-7.487 7.708l-.091.034c-.164.025-2.174.331-4.482.331zm-5.316-5.117c-.28 0-.525.043-.73.139-.412.192-.628.599-.66 1.241-.037.75.209 1.353.752 1.842 2.002 1.802 7.33 1.42 9.461 1.184-2.136-1.551-6.567-4.406-8.823-4.406zm9.76 4.539h.005-.006zm4.483-8.985c-.56 0-1.075.157-1.539.472-2.42 1.642-2.93 7.016-3.016 8.263 2.134-1.31 7.416-5.047 7.19-7.193-.06-.574-.521-1.005-1.408-1.316a3.702 3.702 0 0 0-1.227-.226z"/><linearGradient id="e" x1="-781.753" x2="-781.753" y1="653.639" y2="650.29" gradientTransform="translate(991.88 -95.754)" gradientUnits="userSpaceOnUse"><stop offset="0" stop-color="#30355c"/><stop offset=".997" stop-color="#262c51"/></linearGradient><path fill="url(#e)" d="M227.194 556.879c0 1.228-2.42 2.205-5.9 2.894-.297.065-.605.12-.911.177-.252.046-.512.083-.782.13-.196.028-.4.065-.605.093-9.138 1.293-25.945.893-25.935-1.945 0-2.252.288-7.557.502-11.204.13-2.178.233-3.77.233-3.77l24.828-.362 1.116-.019.624-.009.754-.01 5.248-.083.168 2.922.66 11.186z"/><linearGradient id="f" x1="-775.793" x2="-777.793" y1="631.134" y2="573.833" gradientTransform="translate(991.88 -95.754)" gradientUnits="userSpaceOnUse"><stop offset="0" stop-color="#30355c"/><stop offset=".997" stop-color="#262c51"/></linearGradient><path fill="url(#f)" d="m227.199 543.842 9.562-209.076-55.383-.845 10.144 210.204c.271 7.982 35.948 7.698 35.677-.283z"/><linearGradient id="g" x1="-772.885" x2="-766.408" y1="546.886" y2="546.886" gradientTransform="translate(991.88 -95.754)" gradientUnits="userSpaceOnUse"><stop offset="0" stop-color="#191923"/><stop offset="1" stop-color="#0c0c14"/></linearGradient><path fill="url(#g)" d="M225.473 342.09c.028 1.257-2.364 146.754-4.355 200.765-.075 2.019-.15 3.945-.224 5.77a899.61 899.61 0 0 1-.511 11.325c-.252.046-.512.083-.782.13-.196.028-.4.065-.605.093.158-3.071.335-6.85.502-11.204.084-1.927.159-3.955.242-6.096 1.973-53.787 4.356-199.451 4.337-200.754l1.396-.028z"/><path fill="#d4e3f6" d="M167.653 554.916v26.43l-22.675 3.05-5.124-3.233-1.069-11.696v-24.799z"/><linearGradient id="h" x1="-4296.575" x2="-4328.743" y1="664.656" y2="705.742" gradientTransform="translate(4479.06 -95.754)" gradientUnits="userSpaceOnUse"><stop offset="0" stop-color="#191923"/><stop offset="1" stop-color="#0c0c14"/></linearGradient><path fill="url(#h)" d="M205.173 595.268h-.012c-.248.9-.535 1.682-.809 2.347a4.324 4.324 0 0 1-2.96 2.543c-.652.156-1.356.312-2.086.443-15.88 3-49.103.952-59.495.195a4.37 4.37 0 0 1-3.977-3.39c-.208-.9-.39-1.76-.573-2.62-2.4-12.321-2.621-23.522 3.52-25.321 1.5-.43 2.973 5.098 4.577 6.31 3.624 2.752 11.07 3.769 15.607 1.76.86-.39 1.603-.873 2.217-1.473 2.66-2.647.065-11.252 7.51-10.522 6.323.613 5.502 5.45 6.584 7.745.796 1.708 2.034 3.025 3.534 4.081 6.48 4.472 18.123 3.847 23.365 7.028.482.287.912.613 1.277.978 2.869 2.868 2.556 6.872 1.721 9.896z"/><path fill="#4285f4" d="M205.17 595.274h-.013c-.248.9-.535 1.682-.809 2.347a4.324 4.324 0 0 1-2.96 2.542c-.651.157-1.355.313-2.086.443-15.88 3-49.103.953-59.495.196a4.371 4.371 0 0 1-3.977-3.39c-.208-.9-.39-1.76-.573-2.621l.013-.013s31.721 2.983 53.522 2.369a8.539 8.539 0 0 0 8.043-6.45c.263-1.052.558-1.993.864-2.581.69-1.37 1.669-2.673 3.05-3.325a4.536 4.536 0 0 1 1.422-.391c.482.286.912.612 1.278.978 2.868 2.868 2.555 6.87 1.72 9.896z"/><linearGradient id="i" x1="-4301.82" x2="-4288.904" y1="677.478" y2="677.478" gradientTransform="translate(4479.06 -95.754)" gradientUnits="userSpaceOnUse"><stop offset="0" stop-color="#ececec"/><stop offset=".987" stop-color="#e0e0e0"/></linearGradient><path fill="url(#i)" d="M189.904 586.486h-.004a.25.25 0 0 1-.246-.254c.046-2.66-1.828-4.96-2.12-5.302-4.085-1.547-9.885 1.72-9.943 1.752l-.351-.321c1.876-4.07 1.604-5.012 1.59-5.05a.243.243 0 0 1 .122-.325c.124-.06.277 0 .337.125.074.155.339 1.087-1.295 4.795 1.682-.838 6.252-2.798 9.778-1.42l.095.065c.096.106 2.34 2.625 2.287 5.69a.25.25 0 0 1-.25.245z"/><linearGradient id="j" x1="-4309.75" x2="-4285.614" y1="677.076" y2="677.076" gradientTransform="translate(4479.06 -95.754)" gradientUnits="userSpaceOnUse"><stop offset="0" stop-color="#ececec"/><stop offset=".987" stop-color="#e0e0e0"/></linearGradient><path fill="url(#j)" d="m182.753 584.62-.265-.02c-.651-.484-1.023-1.102-1.105-1.837-.15-1.339.708-2.69 1.124-3.255-5.321-1.99-12.815-.314-12.892-.296a.25.25 0 1 1-.111-.487c.324-.075 8.023-1.794 13.5.441l.096.394c-.014.016-1.39 1.648-1.22 3.149.061.545.325 1.013.785 1.395 1.012-.515 6.808-3.34 10.58-2.58a.25.25 0 1 1-.099.49c-3.882-.784-10.328 2.573-10.393 2.607z"/><linearGradient id="k" x1="-4315.129" x2="-4295.851" y1="668.632" y2="668.632" gradientTransform="translate(4479.06 -95.754)" gradientUnits="userSpaceOnUse"><stop offset="0" stop-color="#ececec"/><stop offset=".987" stop-color="#e0e0e0"/></linearGradient><path fill="url(#k)" d="M171.14 577.911c-2.319 0-4.939-.309-6.288-1.523-.653-.588-.962-1.341-.917-2.238.041-.834.36-1.396.948-1.67 2.356-1.1 8.543 3.214 10.143 4.378.119-1.59.696-6.737 3.221-8.452.923-.626 2.004-.729 3.213-.304 1.073.376 1.658.96 1.74 1.736.307 2.922-7.168 7.514-7.487 7.708l-.091.034c-.164.025-2.174.331-4.482.331zm-5.316-5.117c-.28 0-.525.043-.73.139-.412.192-.628.599-.66 1.241-.037.75.209 1.353.752 1.842 2.002 1.802 7.33 1.42 9.461 1.184-2.136-1.551-6.567-4.406-8.823-4.406zm9.76 4.539h.006-.007zm4.484-8.985c-.561 0-1.076.157-1.54.472-2.42 1.642-2.929 7.016-3.016 8.263 2.134-1.31 7.416-5.047 7.19-7.193-.06-.574-.521-1.005-1.408-1.316a3.702 3.702 0 0 0-1.226-.226z"/><linearGradient id="l" x1="-841.326" x2="-841.326" y1="650.097" y2="648.11" gradientTransform="translate(991.88 -95.754)" gradientUnits="userSpaceOnUse"><stop offset="0" stop-color="#30355c"/><stop offset=".997" stop-color="#262c51"/></linearGradient><path fill="url(#l)" d="M167.618 558.227c.01 2.836-16.791 3.241-25.933 1.947-.208-.03-.405-.07-.603-.099-.267-.04-.534-.08-.78-.129-.307-.05-.614-.108-.92-.178-3.479-.681-5.89-1.66-5.89-2.885l.652-11.188.168-2.925 5.248.089.761.01h.623l1.116.02 24.826.365s.1 1.591.228 3.766c.217 3.656.504 8.953.504 11.207z"/><linearGradient id="m" x1="-860.234" x2="-841.477" y1="617.056" y2="514.062" gradientTransform="translate(991.88 -95.754)" gradientUnits="userSpaceOnUse"><stop offset="0" stop-color="#30355c"/><stop offset=".997" stop-color="#262c51"/></linearGradient><path fill="url(#m)" d="m133.483 543.842-9.563-209.076 64.136-.782-18.897 210.141c-.271 7.982-35.948 7.698-35.676-.283z"/><linearGradient id="n" x1="-856.672" x2="-850.195" y1="546.886" y2="546.886" gradientTransform="translate(991.88 -95.754)" gradientUnits="userSpaceOnUse"><stop offset="0" stop-color="#191923"/><stop offset="1" stop-color="#0c0c14"/></linearGradient><path fill="url(#n)" d="M135.208 342.09c-.027 1.257 2.364 146.754 4.356 200.765.074 2.019.149 3.945.223 5.77.177 4.382.344 8.198.512 11.325.25.046.512.083.781.13.196.028.4.065.605.093-.158-3.071-.335-6.85-.502-11.204-.084-1.927-.158-3.955-.242-6.096-1.973-53.787-4.355-199.451-4.337-200.754l-1.396-.028z"/><path fill="#ffd4cf" d="m173.356 216.577 32.615 4.977 1.302-7.894 3.073-18.699-25.75-7.578-11.24 29.194z"/><linearGradient id="o" x1="2518.539" x2="2514.455" y1="448.666" y2="444.581" gradientTransform="scale(-1 1) rotate(-5.702 -1326.11 27595.402)" gradientUnits="userSpaceOnUse"><stop offset="0" stop-color="#ffd4cf"/><stop offset="1" stop-color="#f8b7b3"/></linearGradient><path fill="url(#o)" d="M187.205 190.854c.069 6.464 19.825 23.012 20.068 22.806l3.073-18.699-22.148-6.52c-.637.613-1.008 1.405-.993 2.413z"/><path fill="#fff" d="m208.716 366.353-.173-139.289.173-4.64v-.01l-4.407-.763-.087-.017-.71-.122-28.177-4.884-.364.547-1.978 2.958-25.755 38.62 9.028 108.6c0 6.587 52.45 5.587 52.45-1z"/><path fill="#4285f4" d="M237.929 372.64c.536 4.555-36.295 10.394-36.83 5.839v-16.537l36.215-2.237.615 12.935z"/><path fill="#4285f4" d="M234.407 366.206c3.617-27.935 5.567-120.95-4.724-136.59-2.505-3.806-12.977-6.451-16.82-7.015a97.584 97.584 0 0 0-4.147-.53v-.008c-.546-.06-.85-.087-.85-.087l-.286 5.422c-3.017 56.168-14.112 128.99-6.881 141.826.543 6.063 34.251 3.044 33.708-3.018z"/><path fill="#d32118" d="M233.883 336.008a1.483 1.483 0 0 1-.628-2c16.473-31.555 9.288-61.097.359-80.322-9.712-20.914-23.484-34.469-23.622-34.604a1.482 1.482 0 1 1 2.07-2.123c.579.565 14.302 14.074 24.242 35.478 9.208 19.83 16.61 50.317-.42 82.943a1.482 1.482 0 0 1-2 .628z"/><path fill="#4285f4" d="m175.607 369.917-1.35 10.87c0 5.944-52.893 4.81-52.893-1.134l.062-12.298 54.181 2.562z"/><path fill="#4285f4" d="M175.336 373.736c4.937-14.093-2.005-62.227-2.671-100.108l2.466-52.891.008-.148.173-3.715.024-.601s-.633-.107-1.75-.28c-.28-.049-.584-.09-.921-.139h-.009a164.944 164.944 0 0 0-9.88-1.15l-.23-.025c-8.049-.658-18.004-.781-23.873 1.701-.189.082-.378.156-.55.247-1.07.493-1.982 1.101-2.689 1.808-5.762 5.738-9.462 18.603-11.796 34.329-.132.847-.255 1.693-.37 2.556v.009c-2.026 14.878-2.901 101.58-3.192 117.574 0 4.649 55.26 5.482 55.26.833z"/><path fill="#30355c" d="M237.07 322.13c-12.71 6.483-25.181 6.755-37.382 0-1.781 23.235-2.257 41.293 1.01 47.094.544 6.063 37.88 2.265 37.337-3.797 1.2-9.265-1.413-24.912-.966-43.297zM120.86 322.13c-.41 22.551-.655 43.658-.784 50.773 0 4.649 57.021 5.53 57.021.882 2.922-8.34-.078-28.651-1.714-51.655-20.367 7.159-38.492 6.998-54.522 0z"/><path d="M213.759 279.859c-10.913 32.24-10.681 32.324-12.495 34.493-3.667 4.398-10.375 4.036-16.088 3.592-4.842-.37-9.7-.518-14.558-.435-15.786.236-28.749 2.558-43.067 6.609a71.42 71.42 0 0 1-7.547-16.014c.334-11.737.358-31.433 3.264-52.775v-.009c.115-.863.238-1.71.37-2.556 6.954-7.399 15.15-13.613 24.217-18.192l5.96-4.965c4.34 10.654 3.74 23.206-1.611 33.4-1.373 2.622-3.083 5.73-1.685 8.343 1.438 2.705 5.154 2.935 8.212 2.82l13.934-.542 35.331-1.381c2.113-.083 4.595 0 5.837 1.726 1.192 1.652.583 3.954-.074 5.886z" opacity=".1"/><path fill="#30355c" d="M201.556 230.697s12.473-5.028 13.687-13.339c1.214-8.31-7.105-8.972-7.105-8.972-.779 5.49-1.819 10.523-4.604 12.648l-1.978 9.663z"/><path fill="#333461" d="M203.534 221.034c10.849-2.595 4.604-12.648 4.604-12.648-.779 5.49-1.819 10.523-4.604 12.648z"/><path fill="#30355c" d="M132.152 214.72c1.866 1 3.89 1.648 5.969 1.902 5.778-2.733 18.779-2.09 24.75-.49 3.32.89 38.685 14.565 38.685 14.565l1.979-9.663-27.453-11.533 7.28-18.916s-3.026-5.309-15.12-8.85c-12.093-3.543-34.793 4.133-43.083 13.787-5.849 6.818.21 15.534 6.993 19.198z"/><path fill="#1d2344" d="M176.082 209.502s-24.577-16.835-17.385-23.39 24.665 4.477 24.665 4.477l-7.28 18.913z"/><linearGradient id="p" x1="-777.758" x2="-756.371" y1="248.78" y2="248.78" gradientTransform="translate(991.88 -95.754)" gradientUnits="userSpaceOnUse"><stop offset="0" stop-color="#191923"/><stop offset="1" stop-color="#0c0c14"/></linearGradient><path fill="url(#p)" d="M234.37 146.545c3.25 11.967-.925 20.897-6.559 24.036-3.58 1.995-8.17 1.518-10.92-1.638-2.534-2.909-3.177-7.52-2.539-11.68s2.383-8 4.102-11.759c1.185-2.59 2.389-5.212 4.101-7.375 1.473-1.861 5.404-5.629 7.158-2.882 2.057 3.221 3.619 7.47 4.658 11.298z"/><path fill="#ffd4cf" d="M184.595 187.383s14.803 23.248 35.194 14.672c20.382-8.57 8.76-59.601-2.88-62.433-5.023-1.224-26.388-4.125-27.272-2.723-.885 1.4-5.254 32.924-5.254 32.924s-5.882-4.311-9.073-2.342c-.892.549-1.572 1.594-1.856 3.363-1.966 12.374 11.141 16.54 11.141 16.54z"/><linearGradient id="q" x1="-821.956" x2="-760.696" y1="245.928" y2="245.928" gradientTransform="translate(991.88 -95.754)" gradientUnits="userSpaceOnUse"><stop offset="0" stop-color="#191923"/><stop offset="1" stop-color="#0c0c14"/></linearGradient><path fill="url(#q)" d="M228.654 147.361c-.65 1.76-1.455 3.313-2.4 4.678-9.955 14.254-35.02 8.006-35.02 8.006l1.258 17.65-3.723-.37-4.39-7.506s-5.878-4.307-9.067-2.334c-.387-.839-4.414-5.352-4.757-6.389-.919-2.772-1.301-17 2.233-22.852 7.581-12.552 24.16-2.515 24.513-2.276-.008-.099-.912-2.319-1.389-4.916-.608-3.289-.55-7.177 2.828-8.081 6.231-1.677 8.064 3.83 11.024 3.576 2.959-.255 5.335 3.954 10.58 1.167 5.228-2.778 15.643-.542 8.31 19.647z"/><path fill="#ffd4cf" d="m226.028 267.02-4.172 7.31-7.076.31c1.894-2.218 5.792-10.02 5.792-10.02.931-1.918 3.344-2.62 4.875-1.42 1.073.831 1.378 2.428.58 3.82z"/><path fill="#d32118" d="M98.595 344.788a1.483 1.483 0 0 1 1.19-1.725c24.789-4.556 52.616-25.707 67.67-51.435 10.094-17.25 13.02-34.43 8.24-48.378-4.197-12.246-10.725-20.366-19.403-24.136-12.653-5.494-25.658.201-25.788.26a1.483 1.483 0 0 1-1.212-2.706c.58-.26 14.343-6.283 28.18-.273 9.475 4.115 16.55 12.827 21.028 25.894 5.064 14.776 2.05 32.83-8.486 50.836-15.458 26.42-44.117 48.153-69.692 52.853a1.482 1.482 0 0 1-1.727-1.19z"/><path fill="#30355c" d="M209.613 292.342c-.652 8.48-7.349 15.919-15.85 17.589-25.42 4.994-88.983 14.008-95.047-8.535-6.616-24.598 22.75-74.197 37.426-82.873 1.512-.894 3.71-.556 6.313.716 11.808 5.775 15.604 20.574 8.992 33.252l-13.462 27.78 54.19-4.636c10.183-1.107 18.216 6.59 17.438 16.707z"/><path fill="#4285f4" d="m207.457 304.788-10.812.98c-5.723.457-5.128-27.006.48-27.459l11.062-1.238c4.242-.348 3.512 27.369-.73 27.717z"/><ellipse cx="207.7" cy="291.133" fill="#185abc" rx="11.835" ry="2.902" transform="rotate(-87.503 207.7 291.133)"/><path fill="#ffd4cf" d="M248.615 282.08c-.103-2.685-4.715-1.99-8.118-1.827 1.53-.555 5.734-1.232 4.183-4.895-1.542-3.606-22.824-1.029-22.824-1.029l-7.076.311c-1.095 1.271-5.238 4.225-5.238 4.225-3.86.339-5.419 23.994-1.549 23.664 0 0 30.918 1.957 32.67-3.614.979-3.14-.813-4.373-2.995-4.88 3.43-.06 7.232-.997 7.214-4.82-.002-1.784-1.68-2.262-2.986-2.352 2.405-.155 6.882-.944 6.72-4.784z"/><path fill="#f8b7b3" d="M240.916 273.735c1.278.173 3.57.542 3.894 1.797.18.463.318.962.284 1.477-.135 2.153-2.622 2.74-4.532 3.416l-.072-.358c3.037-.192 7.596-.975 8.371 1.496.282 1.097-.085 2.711-1.17 3.743-1.83 1.661-4.893 2.099-7.32 2.077-.609-.005-.662-.9-.062-.98l.022-.003h.002c1.339-.123 3.004.004 4.062.845 1.165.865 1.043 2.774.405 4.084-1.18 2.418-4.446 2.94-7.128 2.955l.053-.496c1.386.352 2.81 1.035 3.22 2.417.345 1.062.03 2.436-.277 3.053-1.182 2.046-5.92 2.683-8.342 2.962 2.213-.325 5.785-.945 7.498-2.362.63-.51.723-1.035.854-1.65.432-2.25-.807-3.455-3.066-3.93-.288-.061-.252-.486.042-.496h.01c2.366-.085 5.507-.612 6.465-2.778.409-.92.603-2.456-.276-3.083-.865-.623-2.23-.675-3.39-.542h-.001l-.04-.983c2.183.09 5.078-.225 6.756-1.645.562-.508.912-1.182 1.054-1.922.025-.377.088-.773.01-1.1-.334-1.072-1.574-1.29-2.805-1.392-1.361-.093-4.03.042-4.94.1-.212.006-.263-.295-.061-.36 1.364-.433 2.974-.754 3.93-1.801.684-.768.658-1.728.314-2.696-.108-.482-.511-.804-.937-1.033-.87-.453-1.857-.65-2.827-.812z"/><path fill="#f8b7b3" d="M240.89 280.575c-4.414.664-12.341 1.028-16.732.606 4.06-.548 12.228-1.295 16.676-1.32.443-.003.495.648.056.714zM240.585 287.289c-4.36.656-12.328 1.03-16.732.605 4.102-.553 12.25-1.294 16.676-1.32.443-.002.494.649.056.715zM238.063 294.44c-4.36.657-12.328 1.03-16.732.606 4.102-.553 12.25-1.295 16.676-1.32a.36.36 0 0 1 .056.714z"/><linearGradient id="r" x1="-769.555" x2="-766.043" y1="268.109" y2="268.109" gradientTransform="translate(991.88 -95.754)" gradientUnits="userSpaceOnUse"><stop offset="0" stop-color="#191923"/><stop offset="1" stop-color="#0c0c14"/></linearGradient><path fill="url(#r)" d="M225.72 171.771c.348 1.462-.104 2.904-1.01 3.224-.908.32-1.921-.604-2.269-2.066-.345-1.453.107-2.895 1.014-3.215.906-.32 1.92.604 2.265 2.057z"/><linearGradient id="s" x1="-773.749" x2="-764.802" y1="261.674" y2="261.674" gradientTransform="translate(991.88 -95.754)" gradientUnits="userSpaceOnUse"><stop offset="0" stop-color="#191923"/><stop offset="1" stop-color="#0c0c14"/></linearGradient><path fill="url(#s)" d="M218.483 167.47a.742.742 0 0 1-.24-1.02c1.581-2.561 4.657-2.892 8.44-.908a.742.742 0 0 1-.69 1.313c-2.156-1.132-5.03-1.986-6.49.374a.741.741 0 0 1-1.02.241z"/><linearGradient id="t" x1="-785.422" x2="-781.91" y1="270.267" y2="270.267" gradientTransform="translate(991.88 -95.754)" gradientUnits="userSpaceOnUse"><stop offset="0" stop-color="#191923"/><stop offset="1" stop-color="#0c0c14"/></linearGradient><path fill="url(#t)" d="M209.854 173.93c.347 1.462-.105 2.903-1.012 3.223-.906.32-1.92-.603-2.268-2.066-.345-1.453.107-2.894 1.014-3.214.907-.32 1.92.604 2.266 2.057z"/><linearGradient id="u" x1="-789.401" x2="-780.029" y1="264.742" y2="264.742" gradientTransform="translate(991.88 -95.754)" gradientUnits="userSpaceOnUse"><stop offset="0" stop-color="#191923"/><stop offset="1" stop-color="#0c0c14"/></linearGradient><path fill="url(#u)" d="M202.834 171.659a.741.741 0 0 1-.245-1.02c2.158-3.527 5.247-5.023 8.69-4.217a.741.741 0 0 1-.338 1.444c-2.816-.662-5.264.567-7.088 3.548a.742.742 0 0 1-1.02.245z"/><path fill="#f8b7b3" d="M214.475 173.55c.195 1.467 1.485 4.966 3.012 5.458l.305.114c5.794 2.19 4.505 8.468-.162 8.017a5.464 5.464 0 0 1-2.462-.977c1.467.202 3.304.248 4.242-.898.91-1.102.54-3.083-2.333-4.376-.218-.114-.714-.249-1.323-.849-1.615-1.644-1.94-4.955-1.279-6.49zM214.823 196.3c-1.967-.016-4.595-1.375-5.903-2.626a.742.742 0 0 1 1.025-1.071c1.085 1.037 3.36 2.202 4.89 2.215 1.096.014 1.824-.285 2.099-.806a.74.74 0 1 1 1.31.693c-.646 1.22-2.042 1.595-3.421 1.595zM185.247 175.548c-.81-1.183-1.618-2.426-2.8-3.197-1.123-.765-2.728-1.01-3.794-.236-2.585 1.938-1.242 8.369 3.152 10.054 1.652.594 2.743-.13 2.85-1.37.141-1.414-.905-2.452-1.984-3.385-.526-.457-1.086-1.029-1.76-.864-.313.066-.62.353-.555.68.055.305.478.621.785.37-.283.286-.783.024-.893-.342-.116-.418.244-.788.607-.896.749-.27 1.453.334 2.046.77.571.444 1.147.917 1.604 1.527 1.221 1.588.805 3.607-.57 4.164-2.506 1.072-7.075-2.184-7.25-7.05-.024-.752.044-1.516.288-2.249.88-2.709 3.716-2.953 5.684-1.467 1.184.93 1.92 2.224 2.59 3.49z"/><path fill="#185abc" d="M238.11 142.284c-20.313.29-39.258 4.889-56.711 13.14-3.68 1.721-7.29 3.636-10.844 5.672-4.634-18.647 2.97-37.31 25.09-43.874 8.864-2.639 17.923-1.244 25.443 2.982.825.468 1.602.954 2.374 1.485.367.229.709.478 1.05.727a35.683 35.683 0 0 1 13.598 19.868z"/><path d="M221.088 120.204c-5.968-1.47-12.076-2.54-18.193-1.964-6.374.591-12.8 3.193-16.882 8.134-3.512 4.22-5.022 9.743-5.687 15.18-.594 4.635-.55 9.554 1.073 13.87-3.68 1.721-7.29 3.636-10.844 5.672-4.634-18.647 2.97-37.31 25.09-43.874 8.864-2.639 17.923-1.244 25.443 2.982z" opacity=".1"/><path fill="#4285f4" d="M200.296 148.125s10.11-15.045 35.69-11.75c0 0 18.344 5.827 22.039 8.683 0 0-14.137-2.972-18.556-1.511-5.823 1.925-8.883 13.195-20.596 11.391-7.84-1.207-18.577-6.813-18.577-6.813z"/><linearGradient id="v" x1="-636.198" x2="-702.654" y1="296.017" y2="319.241" gradientTransform="translate(991.88 -95.754)" gradientUnits="userSpaceOnUse"><stop offset="0" stop-color="#fbbc04"/><stop offset="1" stop-color="#f29c03"/></linearGradient><path fill="url(#v)" d="m364.35 205.028.728 17.571-96.34.849v-18.42z"/><linearGradient id="w" x1="-605.256" x2="-622.03" y1="287.525" y2="312.686" gradientTransform="translate(991.88 -95.754)" gradientUnits="userSpaceOnUse"><stop offset="0" stop-color="#fbbc04"/><stop offset="1" stop-color="#f29c03"/></linearGradient><path fill="url(#w)" d="m364.35 204.894 27.05-20.116v20.116L365 222.466z"/><path fill="#d80" d="m262.818 195.694.824 10.177 100.507.032 31.824-20.238-.846-10.353-32.678 19.13z"/><linearGradient id="x" x1="-661.461" x2="-667.864" y1="272.633" y2="311.049" gradientTransform="translate(991.88 -95.754)" gradientUnits="userSpaceOnUse"><stop offset="0" stop-color="#fbbc04"/><stop offset="1" stop-color="#f29c03"/></linearGradient><path fill="url(#x)" d="m262.826 195.695 99.626-1.245 9.814-5.752 22.87-13.381-89.115-1.456z"/><path fill="#4285f4" d="m320.697 243.102-5.694 9.243c-3.065 4.855-24.694-12.08-21.695-16.84l5.638-9.598c2.264-3.604 24.015 13.59 21.751 17.195z"/><ellipse cx="309.911" cy="234.724" fill="#185abc" rx="2.902" ry="12.92" transform="rotate(-50.685 309.911 234.724)"/><path fill="#ffd4cf" d="m337.381 222.846-19.277 18.09c-2.357.623-15.793-8.513-15.958-12.15 0 0-5.066-19.638 3.149-17.659 8.224 1.97 4.87 11.957 4.87 11.957l27.216-.238z"/><path fill="#d4e3f6" d="M290.212 601.422h5.095c.226-10.038-1.598-22.663-4.804-32.778-1.128-3.817-2.562-7.498-4.056-11.112 1.078 3.807 2.073 7.623 2.752 11.515 1.895 9.736 2.449 22.121 1.013 32.375zM301.327 601.422c-1.243-7.655-.632-15.264 1.145-22.875-3.43 7.285-5.533 14.866-5.96 22.875h4.815zM283.967 601.422h4.814c-.447-8.41-2.616-15.773-5.96-22.875.5 2.14.951 4.274 1.224 6.436.732 5 .764 11.25-.078 16.439z"/></svg>