<svg xmlns="http://www.w3.org/2000/svg" fill="none" viewBox="0 0 3000 3000"><path fill="#E7E8FF" d="M2189.76 2687.99H1550.11H647.543C587.875 2687.99 530.396 2665.11 486.549 2623.91C374.56 2518.68 387.584 2334.8 513.243 2247.02L665.14 2140.91C837.927 2020.21 883.899 1780.83 768.492 1602.76L706.333 1506.85C530.406 1235.39 646.661 867.88 945.124 751.975L1172.2 663.794C1297.28 615.222 1438.57 642.687 1537.27 734.757L1655.01 844.589C1733.93 918.204 1856.51 912.808 1928.89 832.531C2010.28 742.261 2151.94 748.486 2225.39 845.561L2544.21 1266.94C2629.24 1379.32 2618.33 1538.68 2518.8 1637.95L2451.07 1705.51C2345.76 1810.56 2376.74 1990.5 2510.88 2052.8C2629.05 2107.69 2670.45 2257.54 2597.7 2367.1L2493.8 2523.59C2425.55 2626.39 2311.63 2687.99 2189.76 2687.99Z"/><path fill="#EFCB96" d="M2374.69 2080.15C2367.61 2097.96 2345.2 2126.17 2334.88 2138.04L2343.73 2289.44C2348.15 2283.5 2379.12 2268.07 2467.59 2253.82C2578.18 2236 2547.21 2164.76 2520.67 2106.87C2494.13 2048.98 2480.86 2057.89 2454.32 2053.44C2427.78 2048.98 2383.54 2057.89 2374.69 2080.15Z"/><path fill="#F4AD5E" d="M1534.77 1450.75C1608.63 1422.65 1741.39 1526.86 1798.54 1582.48C1939.22 1753.73 1838.11 2148.93 1868.88 2162.1C1899.65 2175.27 2264.54 2091.84 2304.11 2096.23C2343.67 2100.62 2409.62 2267.48 2383.24 2328.96C2356.86 2390.43 1917.24 2653.9 1772.16 2689.02C1627.09 2724.15 932.489 2693.42 879.735 2680.24C826.98 2667.07 853.358 2570.47 954.47 2271.87C1121.53 1771.29 1442.45 1485.88 1534.77 1450.75Z"/><path fill="#EFCB96" d="M1693.03 1349.75L1613.9 1459.53L1789.75 1613.21L1846.9 1485.87C1978.79 1468.31 1991.98 1292.67 1987.58 1226.8C1983.18 1160.94 1934.82 1077.51 1789.75 1152.15C1673.69 1211.87 1676.91 1308.77 1693.03 1349.75Z"/><path fill="#032068" d="M1719.41 1345.36L1640.28 1420.01C1627.09 1402.45 1640.28 1345.36 1640.28 1288.28C1640.28 1231.2 1671.05 1138.98 1794.14 1095.07C1917.24 1051.16 2027.14 1143.37 2005.16 1160.94C1987.58 1174.99 1956.8 1181.43 1943.61 1182.89C1920.17 1184.36 1867.12 1193.43 1842.5 1218.02C1811.73 1248.76 1785.35 1319.02 1776.56 1301.45C1767.77 1283.89 1780.95 1244.37 1736.99 1244.37C1701.82 1244.37 1710.61 1311.7 1719.41 1345.36Z"/><path fill="#032068" d="M2000.77 1187.28C1983.18 1187.28 1917.24 1178.5 1886.47 1174.11C1931.89 1150.69 2036.82 1100.34 2093.09 1086.29C2163.43 1068.72 2189.81 1103.85 2172.22 1130.2C2154.64 1156.55 2022.75 1187.28 2000.77 1187.28Z"/><path fill="#fff" d="M1877.68 1174.11C1817.66 1190.76 1693.63 1240.3 1628.46 1270.35C1623.5 1272.64 1617.78 1269.34 1617.43 1263.89C1611.35 1169.21 1636.54 1054.37 1763.37 1024.82C1877.34 991.335 1963.09 1074.86 1988.65 1127.12C1990.61 1131.14 1988.43 1135.82 1984.2 1137.28L1877.68 1174.11Z"/><path fill="#032068" fill-rule="evenodd" d="M1913.19 1037.08C1953.4 1061.11 1982.27 1096.21 1995.7 1123.68C1999.93 1132.33 1995.03 1141.84 1986.77 1144.69L1880.01 1181.6L1879.78 1181.67C1820.35 1198.16 1696.77 1247.5 1631.75 1277.47C1621.94 1281.99 1610.3 1275.51 1609.59 1264.39C1606.5 1216.32 1611.29 1162.43 1633.49 1116.52C1655.84 1070.3 1695.66 1032.6 1761.37 1017.23C1820.72 999.861 1872.82 1012.96 1913.19 1037.08ZM1905.13 1050.55C1867.79 1028.24 1820.12 1016.32 1765.59 1032.34L1765.37 1032.4L1765.16 1032.45C1704.16 1046.67 1668.04 1081.14 1647.63 1123.35C1627.08 1165.85 1622.29 1216.64 1625.25 1263.19C1690.51 1233.11 1814.67 1183.49 1875.34 1166.62L1981.3 1129.98C1969.05 1105.26 1942.39 1072.81 1905.13 1050.55Z" clip-rule="evenodd"/><path fill="#032068" d="M1653.47 2605.6C1576.09 2563.44 1424.86 2258.7 1354.52 2109.41C1442.45 2359.7 1547.96 2548.51 1596.32 2601.2C1644.67 2653.9 1723.81 2693.42 1758.98 2689.03C1787.11 2685.51 1835.18 2667.07 1860.09 2653.9C1826.38 2656.82 1730.84 2647.75 1653.47 2605.6Z"/><path fill="#032068" d="M1842.5 2658.29C1744.03 2552.9 1613.9 2506.06 1561.15 2495.82C1575.8 2526.56 1620.06 2595.93 1679.84 2627.55C1739.63 2659.17 1813.2 2661.22 1842.5 2658.29Z"/><path fill="#fff" d="M338.999 1718.6C412.855 1581.6 589.583 1269.25 668.715 1130.2C769.828 1103.86 1398.49 1433.18 1411.68 1490.27C1424.86 1547.35 866.544 2605.6 809.394 2609.99C752.243 2614.38 101.603 2289.44 101.603 2245.53C101.603 2201.62 246.678 1889.85 338.999 1718.6Z"/><path fill="#032068" fill-rule="evenodd" d="M1407.92 1471.08C1413.32 1476.68 1417.98 1482.65 1419.33 1488.5C1420.12 1491.96 1419.69 1496.08 1419 1499.9C1418.25 1504.01 1416.95 1508.93 1415.21 1514.52C1411.73 1525.73 1406.29 1540.28 1399.19 1557.56C1384.99 1592.18 1363.97 1638.37 1338.25 1692.07C1286.81 1799.51 1216.42 1937.38 1143.84 2073.57C1071.27 2209.76 996.472 2344.35 936.209 2445.23C906.09 2495.64 879.527 2537.76 858.65 2567.46C848.228 2582.29 839.095 2594.21 831.553 2602.57C827.795 2606.73 824.261 2610.2 821.023 2612.73C818.076 2615.03 814.233 2617.48 809.996 2617.81C804.926 2618.2 797.848 2616.81 789.964 2614.67C781.75 2612.43 771.594 2609.06 759.86 2604.75C736.373 2596.12 706.096 2583.54 671.511 2568.24C602.317 2537.64 515.499 2496 430.51 2452.86C345.53 2409.74 262.251 2365.06 200.16 2328.37C169.142 2310.04 143.246 2293.61 125.036 2280.31C115.958 2273.68 108.563 2267.66 103.361 2262.44C100.767 2259.84 98.5229 2257.25 96.8786 2254.71C95.3358 2252.33 93.75 2249.14 93.75 2245.53C93.75 2238.66 96.4218 2227.88 100.531 2214.93C104.756 2201.63 110.856 2184.99 118.409 2165.88C133.522 2127.62 154.602 2079.05 178.534 2026.57C226.398 1921.61 285.824 1800.7 332.084 1714.88C405.992 1577.79 582.767 1265.36 661.888 1126.33L663.525 1123.45L666.732 1122.61C674.34 1120.63 683.773 1120.45 694.33 1121.47C704.993 1122.5 717.332 1124.8 731.001 1128.15C758.34 1134.86 791.583 1145.91 828.413 1160C902.105 1188.18 990.833 1228.79 1076.7 1271.94C1162.57 1315.1 1245.76 1360.91 1308.37 1399.55C1339.66 1418.86 1365.95 1436.46 1384.92 1451.12C1394.39 1458.44 1402.19 1465.16 1407.92 1471.08ZM673.79 1137.16C678.58 1136.4 684.899 1136.32 692.823 1137.08C702.484 1138.01 714.032 1140.14 727.256 1143.39C753.701 1149.87 786.264 1160.67 822.796 1174.65C895.828 1202.58 984.048 1242.94 1069.64 1285.96C1155.22 1328.97 1237.99 1374.55 1300.11 1412.89C1331.2 1432.08 1356.97 1449.36 1375.31 1463.53C1384.49 1470.63 1391.64 1476.82 1396.62 1481.97C1401.92 1487.46 1403.73 1490.75 1404.02 1492.03C1404 1491.95 1404.09 1492.29 1404.04 1493.28C1403.99 1494.21 1403.84 1495.46 1403.54 1497.08C1402.95 1500.33 1401.85 1504.59 1400.21 1509.88C1396.93 1520.44 1391.68 1534.5 1384.66 1551.62C1370.63 1585.82 1349.75 1631.7 1324.08 1685.3C1272.77 1792.48 1202.48 1930.14 1129.98 2066.2C1057.47 2202.26 982.804 2336.62 922.722 2437.19C892.668 2487.49 866.338 2529.22 845.795 2558.45C835.506 2573.09 826.797 2584.41 819.888 2592.06C816.421 2595.9 813.577 2598.63 811.351 2600.37C809.522 2601.8 808.649 2602.13 808.563 2602.18C808.562 2602.18 808.562 2602.18 808.561 2602.18C806.381 2602.28 801.735 2601.61 794.089 2599.53C786.493 2597.47 776.811 2594.26 765.284 2590.03C742.251 2581.56 712.32 2569.13 677.87 2553.9C608.996 2523.44 522.438 2481.92 437.624 2438.88C352.799 2395.83 269.847 2351.32 208.157 2314.87C177.285 2296.63 151.902 2280.5 134.308 2267.65C125.483 2261.2 118.843 2255.74 114.487 2251.37C112.301 2249.18 110.885 2247.46 110.064 2246.19C109.712 2245.65 109.54 2245.29 109.462 2245.12C109.579 2240.87 111.453 2232.43 115.503 2219.68C119.573 2206.86 125.528 2190.59 133.018 2171.63C147.992 2133.73 168.95 2085.43 192.827 2033.07C240.581 1928.36 299.852 1807.76 345.913 1722.32C419.179 1586.42 593.82 1277.71 673.79 1137.16Z" clip-rule="evenodd"/><path fill="#F4AD5E" d="M1227.03 1889.85L1275.39 1806.42C1222.64 1771.29 746.381 1519.54 514.847 1398.06L462.093 1485.88L1227.03 1889.85Z"/><path fill="#F4AD5E" d="M914.903 1384.88L994.035 1239.98L1147.9 1319.02L1077.56 1459.53L914.903 1384.88Z"/><path fill="#032068" d="M1301.77 2491.43C1171.64 2393.07 1121.52 2201.62 1112.73 2118.19L1038 2249.92C1099.54 2574.86 1367.71 2680.24 1442.45 2697.81C1502.24 2711.86 1619.76 2703.66 1671.05 2697.81C1602.18 2670 1431.9 2589.79 1301.77 2491.43Z"/><path fill="#032068" d="M1644.67 1613.22C1539.17 1567.55 1407.28 1614.68 1354.52 1643.96L1385.3 1560.53C1402.88 1529.79 1483.77 1485 1613.9 1516.62C1744.03 1548.23 1824.92 1646.88 1855.69 1696.65C1866.24 1738.8 1868.88 1804.96 1868.88 1832.77C1838.11 1778.61 1750.18 1658.88 1644.67 1613.22Z"/><path fill="#032068" d="M1763.37 2166.49H1890.86C1862.73 2166.49 1861.55 2131.36 1864.49 2113.8L1763.37 2166.49Z"/><path fill="#F4AD5E" fill-rule="evenodd" d="M2501.95 1659.67C2537.93 1659.67 2695.31 1379.74 2695.31 1272.95C2695.31 1166.16 2608.74 1079.59 2501.95 1079.59C2395.16 1079.59 2308.59 1166.16 2308.59 1272.95C2308.59 1379.74 2452.49 1659.67 2501.95 1659.67ZM2501.96 1374.38C2556.66 1374.38 2601 1329.68 2601 1274.53C2601 1219.39 2556.66 1174.68 2501.96 1174.68C2447.26 1174.68 2402.92 1219.39 2402.92 1274.53C2402.92 1329.68 2447.26 1374.38 2501.96 1374.38Z" clip-rule="evenodd"/><path fill="#F4AD5E" fill-rule="evenodd" d="M2787.6 2107.91C2809.67 2107.91 2906.25 1938.26 2906.25 1873.54C2906.25 1808.81 2853.13 1756.35 2787.6 1756.35C2722.07 1756.35 2668.95 1808.81 2668.95 1873.54C2668.95 1938.26 2757.24 2107.91 2787.6 2107.91ZM2787.6 1935.01C2821.16 1935.01 2848.37 1907.92 2848.37 1874.5C2848.37 1841.07 2821.16 1813.98 2787.6 1813.98C2754.04 1813.98 2726.83 1841.07 2726.83 1874.5C2726.83 1907.92 2754.04 1935.01 2787.6 1935.01Z" clip-rule="evenodd"/><path fill="#F4AD5E" d="M1150.83 489.481L1077.91 527.645C1073.47 529.967 1068.07 529.631 1063.91 526.773L1010.94 490.434C999.54 482.616 985.205 494.664 991.178 507.04L1019.45 565.62C1021.52 569.897 1021.16 574.911 1018.51 578.808L978.96 637.058C971.525 648.009 983.115 661.992 995.446 656.947L1063.69 629.024C1067.7 627.384 1072.28 627.769 1075.99 630.056L1126.69 661.288C1138.11 668.324 1151.63 656.464 1145.93 644.41L1121.18 592.076C1119.19 587.873 1119.52 582.975 1122.07 579.126L1168.55 508.698C1176.15 497.179 1163.12 483.048 1150.83 489.481Z"/><path fill="#F4AD5E" d="M719.651 624.375L713.107 646.81C711.711 651.593 707.73 655.177 702.785 656.101L689.783 658.53C676.211 661.066 675.034 679.818 688.166 684.284L701.6 688.852C706.123 690.391 709.517 694.171 710.526 698.795L714.802 718.39C717.626 731.334 735.649 732.974 740.536 720.732L748.678 700.336C750.272 696.344 753.721 693.38 757.94 692.375L770.744 689.325C783.774 686.221 784.527 668.176 771.811 663.743L760.258 659.715C755.841 658.175 752.517 654.492 751.469 649.977L745.758 625.355C742.634 611.888 723.503 611.17 719.651 624.375Z"/><path fill="#032068" fill-rule="evenodd" d="M1884.27 572.467C1867.82 572.128 1851.5 572.562 1835.37 573.725L1833.58 548.979C1850.48 547.762 1867.56 547.307 1884.78 547.663L1884.27 572.467ZM1786.78 579.482C1770.56 582.161 1754.59 585.566 1738.9 589.648L1732.65 565.638C1749.06 561.369 1765.77 557.806 1782.73 555.004L1786.78 579.482ZM1981.38 583.54C1965.22 580.16 1949.11 577.576 1933.08 575.747L1935.89 551.097C1952.67 553.012 1969.54 555.717 1986.46 559.256L1981.38 583.54ZM1692.14 604.105C1676.66 609.665 1661.55 615.889 1646.85 622.721L1636.39 600.223C1651.76 593.078 1667.57 586.57 1683.75 580.756L1692.14 604.105ZM2074.92 612.206C2059.55 605.943 2044.16 600.469 2028.78 595.75L2036.05 572.031C2052.14 576.967 2068.23 582.689 2084.29 589.23L2074.92 612.206ZM1603.44 645.351C1589.21 653.619 1575.48 662.474 1562.32 671.856L1547.92 651.654C1561.71 641.822 1576.09 632.55 1590.98 623.898L1603.44 645.351ZM2162.11 656.745C2147.95 647.966 2133.71 639.937 2119.43 632.628L2130.73 610.542C2145.62 618.162 2160.45 626.525 2175.18 635.658L2162.11 656.745ZM1523.94 702.095C1517.77 707.466 1511.76 712.96 1505.93 718.57C1499.15 725.095 1492.8 731.483 1486.87 737.734L1468.88 720.648C1475.08 714.115 1481.69 707.463 1488.73 700.693C1494.86 694.793 1501.17 689.018 1507.66 683.377L1523.94 702.095ZM2222.44 699.187C2215.93 694.035 2209.39 689.058 2202.83 684.252L2217.5 664.241C2224.3 669.229 2231.08 674.391 2237.83 679.731L2222.44 699.187ZM1452.36 778.4C1440.38 794.535 1431.42 809.463 1424.93 823.163L1402.51 812.546C1409.79 797.175 1419.63 780.858 1432.44 763.607L1452.36 778.4ZM1395.46 862.047C1382.73 859.137 1368.5 857.598 1352.74 857.979L1352.14 833.176C1369.89 832.747 1386.18 834.476 1400.99 837.861L1395.46 862.047ZM1309.45 863.412C1302.52 864.935 1295.37 866.801 1287.99 869.039C1281.26 871.084 1274.71 873.411 1268.35 875.996L1259.01 853.01C1266.06 850.146 1273.32 847.566 1280.79 845.299C1288.76 842.878 1296.54 840.847 1304.12 839.181L1309.45 863.412ZM1231.29 895.046C1219.35 902.558 1208.18 911.009 1197.75 920.165L1181.38 901.522C1192.72 891.564 1204.94 882.311 1218.08 874.047L1231.29 895.046ZM1465.64 904.387C1458.38 894.856 1448.06 885.333 1434.64 877.408L1447.26 856.046C1463.35 865.549 1476.11 877.193 1485.37 889.351L1465.64 904.387ZM1410.85 871.309C1409.2 890.389 1413.29 905.526 1419.98 917.017L1398.54 929.498C1389.17 913.4 1384.06 893.123 1386.13 869.168L1410.85 871.309ZM1168.12 950.163C1158.76 961.006 1150.2 972.343 1142.41 983.893L1121.84 970.025C1130.13 957.732 1139.28 945.603 1149.33 933.951L1168.12 950.163ZM1473.53 945.498C1476.07 944.508 1477.95 942.55 1478.48 937.896L1503.13 940.713C1501.75 952.771 1495.17 963.675 1482.57 968.604C1471.89 972.783 1459.32 972.312 1447.56 968.832L1454.59 945.041C1462.77 947.46 1469.42 947.108 1473.53 945.498ZM1120.52 1020.43C1113.53 1033.6 1107.5 1046.62 1102.39 1059.08L1079.44 1049.65C1084.84 1036.49 1091.22 1022.73 1098.61 1008.8L1120.52 1020.43ZM1088.29 1099.22C1086.14 1106.63 1084.43 1113.48 1083.13 1119.61L1058.86 1114.46C1060.29 1107.69 1062.16 1100.25 1064.46 1092.31L1088.29 1099.22Z" clip-rule="evenodd"/><path fill="#032068" fill-rule="evenodd" d="M2402.09 714.415L2405.17 829.531L2307.44 839.986L2304.8 815.317L2366.05 808.765C2355.71 798.3 2345.27 788.334 2334.75 778.854L2351.36 760.424C2360.72 768.858 2370 777.654 2379.21 786.821L2377.29 715.078L2402.09 714.415Z" clip-rule="evenodd"/></svg>