<svg xmlns="http://www.w3.org/2000/svg" enable-background="new 0 0 512 512" viewBox="0 0 512 512"><path fill="#DBDFE0" d="M365.9,2L146.1,2c-22,0-39.9,17.9-39.9,39.9l0,428.2c0,22,17.9,39.9,39.9,39.9l219.7,0    c22,0,39.9-17.9,39.9-39.9l0-428.2C405.7,19.9,387.9,2,365.9,2z"/><path fill="#EFEFEF" d="M365.9,2L146.1,2c-22,0-39.9,17.9-39.9,39.9v4.7c0-22,17.9-39.9,39.9-39.9l219.7,0    c22,0,39.9,17.9,39.9,39.9v-4.7C405.7,19.9,387.9,2,365.9,2z"/><rect width="299.5" height="407.2" x="106.3" y="42.6" fill="#445C6C"/><path fill="#C7C9C9" d="M271.7 462.8c16.5 22.2-8.4 47.1-30.7 30.7-.2-.2-.5-.4-.7-.7-16.5-22.2 8.4-47.1 30.7-30.7C271.2 462.3 271.5 462.6 271.7 462.8zM278.2 19.4l-44.4 0c-2.6 0-4.6 2.1-4.6 4.6 0 2.6 2.1 4.6 4.6 4.6l44.4 0c2.6 0 4.6-2.1 4.6-4.6C282.8 21.5 280.7 19.4 278.2 19.4z"/><polygon fill="#F1786B" points="116.3 112.1 60.4 112.1 106.1 42.6 148.9 42.6"/><polygon fill="#EFF3F5" points="172.2 112.1 116.3 112.1 148.9 42.6 191.8 42.6"/><polygon fill="#F1786B" points="228.1 112.1 172.2 112.1 191.8 42.6 234.6 42.6"/><polygon fill="#EFF3F5" points="283.9 112.1 228.1 112.1 234.6 42.6 277.4 42.6"/><polygon fill="#F1786B" points="339.8 112.1 283.9 112.1 277.4 42.6 320.2 42.6"/><polygon fill="#EFF3F5" points="395.7 112.1 339.8 112.1 320.2 42.6 363.1 42.6"/><polygon fill="#F1786B" points="451.6 112.1 395.7 112.1 363.1 42.6 405.9 42.6"/><g><path fill="#CACCCC" d="M116.3 125.1c0 15.4 12.5 27.9 27.9 27.9s27.9-12.5 27.9-27.9v-13h-55.9V125.1zM228.1 125.1c0 15.4 12.5 27.9 27.9 27.9 15.4 0 27.9-12.5 27.9-27.9v-13h-55.9V125.1zM339.8 112.1v13c0 15.4 12.5 27.9 27.9 27.9 15.4 0 27.9-12.5 27.9-27.9v-13H339.8z"/></g><g><path fill="#D45947" d="M60.4 125.1c0 15.4 12.5 27.9 27.9 27.9s27.9-12.5 27.9-27.9v-13H60.4V125.1zM172.2 125.1c0 15.4 12.5 27.9 27.9 27.9 15.4 0 27.9-12.5 27.9-27.9v-13h-55.9V125.1zM283.9 125.1c0 15.4 12.5 27.9 27.9 27.9 15.4 0 27.9-12.5 27.9-27.9v-13h-55.9V125.1zM395.7 112.1v13c0 15.4 12.5 27.9 27.9 27.9s27.9-12.5 27.9-27.9v-13H395.7z"/></g><g><path fill="#5AC8AE" d="M343.4,266.5H168.6c-8,0-14.5,6.5-14.5,14.5c0,3.9,1.6,7.5,4.1,10.1c2.6,2.7,6.3,4.4,10.4,4.4h174.9    c4.2,0,7.9-1.8,10.6-4.6c1.6-1.7,2.8-3.9,3.4-6.2c0.3-1.2,0.5-2.4,0.5-3.7C358,273,351.5,266.5,343.4,266.5z"/><path fill="#72DBC0" d="M168.6,271.2h174.9c7.2,0,13.2,5.3,14.3,12.3c0.1-0.8,0.2-1.6,0.2-2.4c0-8-6.5-14.5-14.5-14.5H168.6    c-8,0-14.5,6.5-14.5,14.5c0,0.8,0.1,1.6,0.2,2.4C155.4,276.5,161.3,271.2,168.6,271.2z"/><path fill="#5AC8AE" d="M171.4,295.5v74.1c0,9.5,7.7,17.2,17.2,17.2h135.1c9.5,0,17.2-7.7,17.2-17.2v-74.1H171.4z"/><rect width="169.5" height="7.5" x="171.4" y="295.5" fill="#52AFA8"/><rect width="14.3" height="60.9" x="205" y="310.7" fill="#52AFA8"/><rect width="14.3" height="60.9" x="248.9" y="310.7" fill="#52AFA8"/><rect width="14.3" height="60.9" x="292.9" y="310.7" fill="#52AFA8"/><g><path fill="#52AFA8" d="M211.3,273c8.8,11.9-4.5,25.2-16.4,16.4c-0.2-0.1-0.3-0.3-0.4-0.4c-8.8-11.9,4.5-25.2,16.4-16.4     C211,272.7,211.2,272.8,211.3,273z"/><path fill="#DBDFE0" d="M199.3,286.6c-2.9-2-3.6-5.9-1.6-8.8l41.8-61.1c2-2.9,5.9-3.6,8.8-1.6s3.6,5.9,1.6,8.8L208.1,285      C206.1,287.9,202.2,288.6,199.3,286.6z"/></g><g><path fill="#52AFA8" d="M300.7,273c-8.8,11.9,4.5,25.2,16.4,16.4c0.2-0.1,0.3-0.3,0.4-0.4c8.8-11.9-4.5-25.2-16.4-16.4     C301,272.7,300.8,272.8,300.7,273z"/><path fill="#DBDFE0" d="M313.4,286.6c2.9-2,3.6-5.9,1.6-8.8l-41.8-61.1c-2-2.9-5.9-3.6-8.8-1.6c-2.9,2-3.6,5.9-1.6,8.8      l41.8,61.1C306.5,287.9,310.5,288.6,313.4,286.6z"/></g></g></svg>